M48
; DRILL file {KiCad 8.0.0} date 2024-03-31T15:47:24-0300
; FORMAT={-:-/ absolute / inch / decimal}
; #@! TF.CreationDate,2024-03-31T15:47:24-03:00
; #@! TF.GenerationSoftware,Kicad,Pcbnew,8.0.0
; #@! TF.FileFunction,Plated,1,2,PTH
FMAT,2
INCH
; #@! TA.AperFunction,Plated,PTH,ViaDrill
T1C0.0118
; #@! TA.AperFunction,Plated,PTH,ComponentDrill
T2C0.0354
; #@! TA.AperFunction,Plated,PTH,ComponentDrill
T3C0.0402
; #@! TA.AperFunction,Plated,PTH,ComponentDrill
T4C0.0433
%
G90
G05
T1
X4.6654Y-3.4087
T2
X4.6244Y-4.5472
X4.7244Y-4.5472
T3
X2.9528Y-2.785
X2.9528Y-2.885
X2.9528Y-2.985
X2.9528Y-3.085
X2.9528Y-3.185
X2.9528Y-3.285
X2.9528Y-3.385
X2.9528Y-3.485
X2.9528Y-3.585
X2.9528Y-3.685
X2.9528Y-3.785
X2.9528Y-3.885
X2.9528Y-3.985
X2.9528Y-4.085
X2.9528Y-4.185
X2.9528Y-4.285
X2.9528Y-4.385
X2.9528Y-4.485
X2.9528Y-4.585
X2.9528Y-4.685
X3.2028Y-4.676
X3.3028Y-4.676
X3.4028Y-4.676
X3.6528Y-2.785
X3.6528Y-2.885
X3.6528Y-2.985
X3.6528Y-3.085
X3.6528Y-3.185
X3.6528Y-3.285
X3.6528Y-3.385
X3.6528Y-3.485
X3.6528Y-3.585
X3.6528Y-3.685
X3.6528Y-3.785
X3.6528Y-3.885
X3.6528Y-3.985
X3.6528Y-4.085
X3.6528Y-4.185
X3.6528Y-4.285
X3.6528Y-4.385
X3.6528Y-4.485
X3.6528Y-4.585
X3.6528Y-4.685
T4
X2.1654Y-4.8819
X2.1654Y-5.0787
X2.3622Y-4.8819
X2.3622Y-5.0787
M30
