%TF.GenerationSoftware,KiCad,Pcbnew,8.0.0*%
%TF.CreationDate,2024-03-31T15:48:46-03:00*%
%TF.ProjectId,schematic,73636865-6d61-4746-9963-2e6b69636164,rev?*%
%TF.SameCoordinates,Original*%
%TF.FileFunction,Copper,L1,Top*%
%TF.FilePolarity,Positive*%
%FSLAX46Y46*%
G04 Gerber Fmt 4.6, Leading zero omitted, Abs format (unit mm)*
G04 Created by KiCad (PCBNEW 8.0.0) date 2024-03-31 15:48:46*
%MOMM*%
%LPD*%
G01*
G04 APERTURE LIST*
G04 Aperture macros list*
%AMRoundRect*
0 Rectangle with rounded corners*
0 $1 Rounding radius*
0 $2 $3 $4 $5 $6 $7 $8 $9 X,Y pos of 4 corners*
0 Add a 4 corners polygon primitive as box body*
4,1,4,$2,$3,$4,$5,$6,$7,$8,$9,$2,$3,0*
0 Add four circle primitives for the rounded corners*
1,1,$1+$1,$2,$3*
1,1,$1+$1,$4,$5*
1,1,$1+$1,$6,$7*
1,1,$1+$1,$8,$9*
0 Add four rect primitives between the rounded corners*
20,1,$1+$1,$2,$3,$4,$5,0*
20,1,$1+$1,$4,$5,$6,$7,0*
20,1,$1+$1,$6,$7,$8,$9,0*
20,1,$1+$1,$8,$9,$2,$3,0*%
G04 Aperture macros list end*
%TA.AperFunction,ComponentPad*%
%ADD10O,1.700000X1.700000*%
%TD*%
%TA.AperFunction,SMDPad,CuDef*%
%ADD11R,3.500000X1.700000*%
%TD*%
%TA.AperFunction,ComponentPad*%
%ADD12R,1.700000X1.700000*%
%TD*%
%TA.AperFunction,SMDPad,CuDef*%
%ADD13R,1.700000X3.500000*%
%TD*%
%TA.AperFunction,ComponentPad*%
%ADD14C,2.000000*%
%TD*%
%TA.AperFunction,SMDPad,CuDef*%
%ADD15RoundRect,0.100000X-0.130000X-0.100000X0.130000X-0.100000X0.130000X0.100000X-0.130000X0.100000X0*%
%TD*%
%TA.AperFunction,SMDPad,CuDef*%
%ADD16R,2.500000X0.700000*%
%TD*%
%TA.AperFunction,SMDPad,CuDef*%
%ADD17R,2.000000X0.900000*%
%TD*%
%TA.AperFunction,SMDPad,CuDef*%
%ADD18R,2.000000X0.600000*%
%TD*%
%TA.AperFunction,SMDPad,CuDef*%
%ADD19R,2.000000X0.500000*%
%TD*%
%TA.AperFunction,ComponentPad*%
%ADD20R,1.800000X1.800000*%
%TD*%
%TA.AperFunction,ComponentPad*%
%ADD21C,1.800000*%
%TD*%
%TA.AperFunction,ViaPad*%
%ADD22C,0.600000*%
%TD*%
%TA.AperFunction,Conductor*%
%ADD23C,0.200000*%
%TD*%
G04 APERTURE END LIST*
D10*
%TO.P,U1,1,GPIO0*%
%TO.N,unconnected-(U1-GPIO0-Pad1)*%
X75000000Y-70740000D03*
D11*
X74100000Y-70740000D03*
D10*
%TO.P,U1,2,GPIO1*%
%TO.N,unconnected-(U1-GPIO1-Pad2)*%
X75000000Y-73280000D03*
D11*
X74100000Y-73280000D03*
D12*
%TO.P,U1,3,GND*%
%TO.N,unconnected-(U1-GND-Pad3)*%
X75000000Y-75820000D03*
D11*
X74100000Y-75820000D03*
D10*
%TO.P,U1,4,GPIO2*%
%TO.N,unconnected-(U1-GPIO2-Pad4)*%
X75000000Y-78360000D03*
D11*
X74100000Y-78360000D03*
D10*
%TO.P,U1,5,GPIO3*%
%TO.N,unconnected-(U1-GPIO3-Pad5)*%
X75000000Y-80900000D03*
D11*
X74100000Y-80900000D03*
D10*
%TO.P,U1,6,GPIO4*%
%TO.N,unconnected-(U1-GPIO4-Pad6)*%
X75000000Y-83440000D03*
D11*
X74100000Y-83440000D03*
D10*
%TO.P,U1,7,GPIO5*%
%TO.N,unconnected-(U1-GPIO5-Pad7)*%
X75000000Y-85980000D03*
D11*
X74100000Y-85980000D03*
D12*
%TO.P,U1,8,GND*%
%TO.N,unconnected-(U1-GND-Pad8)*%
X75000000Y-88520000D03*
D11*
X74100000Y-88520000D03*
D10*
%TO.P,U1,9,GPIO6*%
%TO.N,unconnected-(U1-GPIO6-Pad9)*%
X75000000Y-91060000D03*
D11*
X74100000Y-91060000D03*
D10*
%TO.P,U1,10,GPIO7*%
%TO.N,unconnected-(U1-GPIO7-Pad10)*%
X75000000Y-93600000D03*
D11*
X74100000Y-93600000D03*
D10*
%TO.P,U1,11,GPIO8*%
%TO.N,unconnected-(U1-GPIO8-Pad11)*%
X75000000Y-96140000D03*
D11*
X74100000Y-96140000D03*
D10*
%TO.P,U1,12,GPIO9*%
%TO.N,unconnected-(U1-GPIO9-Pad12)*%
X75000000Y-98680000D03*
D11*
X74100000Y-98680000D03*
D12*
%TO.P,U1,13,GND*%
%TO.N,unconnected-(U1-GND-Pad13)*%
X75000000Y-101220000D03*
D11*
X74100000Y-101220000D03*
D10*
%TO.P,U1,14,GPIO10*%
%TO.N,Net-(U1-GPIO10)*%
X75000000Y-103760000D03*
D11*
X74100000Y-103760000D03*
D10*
%TO.P,U1,15,GPIO11*%
%TO.N,unconnected-(U1-GPIO11-Pad15)*%
X75000000Y-106300000D03*
D11*
X74100000Y-106300000D03*
D10*
%TO.P,U1,16,GPIO12*%
%TO.N,unconnected-(U1-GPIO12-Pad16)*%
X75000000Y-108840000D03*
D11*
X74100000Y-108840000D03*
D10*
%TO.P,U1,17,GPIO13*%
%TO.N,unconnected-(U1-GPIO13-Pad17)*%
X75000000Y-111380000D03*
D11*
X74100000Y-111380000D03*
D12*
%TO.P,U1,18,GND*%
%TO.N,Net-(SW1-Pad4)*%
X75000000Y-113920000D03*
D11*
X74100000Y-113920000D03*
D10*
%TO.P,U1,19,GPIO14*%
%TO.N,unconnected-(U1-GPIO14-Pad19)*%
X75000000Y-116460000D03*
D11*
X74100000Y-116460000D03*
D10*
%TO.P,U1,20,GPIO15*%
%TO.N,unconnected-(U1-GPIO15-Pad20)*%
X75000000Y-119000000D03*
D11*
X74100000Y-119000000D03*
D10*
%TO.P,U1,21,GPIO16*%
%TO.N,unconnected-(U1-GPIO16-Pad21)*%
X92780000Y-119000000D03*
D11*
X93680000Y-119000000D03*
D10*
%TO.P,U1,22,GPIO17*%
%TO.N,unconnected-(U1-GPIO17-Pad22)*%
X92780000Y-116460000D03*
D11*
X93680000Y-116460000D03*
D12*
%TO.P,U1,23,GND*%
%TO.N,Net-(D1-K)*%
X92780000Y-113920000D03*
D11*
X93680000Y-113920000D03*
D10*
%TO.P,U1,24,GPIO18*%
%TO.N,unconnected-(U1-GPIO18-Pad24)*%
X92780000Y-111380000D03*
D11*
X93680000Y-111380000D03*
D10*
%TO.P,U1,25,GPIO19*%
%TO.N,unconnected-(U1-GPIO19-Pad25)*%
X92780000Y-108840000D03*
D11*
X93680000Y-108840000D03*
D10*
%TO.P,U1,26,GPIO20*%
%TO.N,unconnected-(U1-GPIO20-Pad26)*%
X92780000Y-106300000D03*
D11*
X93680000Y-106300000D03*
D10*
%TO.P,U1,27,GPIO21*%
%TO.N,unconnected-(U1-GPIO21-Pad27)*%
X92780000Y-103760000D03*
D11*
X93680000Y-103760000D03*
D12*
%TO.P,U1,28,GND*%
%TO.N,Net-(K1-GND-Pad10)*%
X92780000Y-101220000D03*
D11*
X93680000Y-101220000D03*
D10*
%TO.P,U1,29,GPIO22*%
%TO.N,Net-(U1-GPIO22)*%
X92780000Y-98680000D03*
D11*
X93680000Y-98680000D03*
D10*
%TO.P,U1,30,RUN*%
%TO.N,unconnected-(U1-RUN-Pad30)*%
X92780000Y-96140000D03*
D11*
X93680000Y-96140000D03*
D10*
%TO.P,U1,31,GPIO26_ADC0*%
%TO.N,unconnected-(U1-GPIO26_ADC0-Pad31)*%
X92780000Y-93600000D03*
D11*
X93680000Y-93600000D03*
D10*
%TO.P,U1,32,GPIO27_ADC1*%
%TO.N,unconnected-(U1-GPIO27_ADC1-Pad32)*%
X92780000Y-91060000D03*
D11*
X93680000Y-91060000D03*
D12*
%TO.P,U1,33,AGND*%
%TO.N,unconnected-(U1-AGND-Pad33)*%
X92780000Y-88520000D03*
D11*
X93680000Y-88520000D03*
D10*
%TO.P,U1,34,GPIO28_ADC2*%
%TO.N,unconnected-(U1-GPIO28_ADC2-Pad34)*%
X92780000Y-85980000D03*
D11*
X93680000Y-85980000D03*
D10*
%TO.P,U1,35,ADC_VREF*%
%TO.N,unconnected-(U1-ADC_VREF-Pad35)*%
X92780000Y-83440000D03*
D11*
X93680000Y-83440000D03*
D10*
%TO.P,U1,36,3V3*%
%TO.N,Net-(U1-3V3)*%
X92780000Y-80900000D03*
D11*
X93680000Y-80900000D03*
D10*
%TO.P,U1,37,3V3_EN*%
%TO.N,unconnected-(U1-3V3_EN-Pad37)*%
X92780000Y-78360000D03*
D11*
X93680000Y-78360000D03*
D12*
%TO.P,U1,38,GND*%
%TO.N,unconnected-(U1-GND-Pad38)*%
X92780000Y-75820000D03*
D11*
X93680000Y-75820000D03*
D10*
%TO.P,U1,39,VSYS*%
%TO.N,unconnected-(U1-VSYS-Pad39)*%
X92780000Y-73280000D03*
D11*
X93680000Y-73280000D03*
D10*
%TO.P,U1,40,VBUS*%
%TO.N,Net-(U1-VBUS)*%
X92780000Y-70740000D03*
D11*
X93680000Y-70740000D03*
D10*
%TO.P,U1,41,SWCLK*%
%TO.N,unconnected-(U1-SWCLK-Pad41)*%
X81350000Y-118770000D03*
D13*
X81350000Y-119670000D03*
D12*
%TO.P,U1,42,GND*%
%TO.N,unconnected-(U1-GND-Pad42)*%
X83890000Y-118770000D03*
D13*
X83890000Y-119670000D03*
D10*
%TO.P,U1,43,SWDIO*%
%TO.N,unconnected-(U1-SWDIO-Pad43)*%
X86430000Y-118770000D03*
D13*
X86430000Y-119670000D03*
%TD*%
D14*
%TO.P,SW1,1,1*%
%TO.N,unconnected-(SW1-Pad1)*%
X55000000Y-124000000D03*
%TO.P,SW1,2,2*%
%TO.N,Net-(U1-GPIO10)*%
X60000000Y-124000000D03*
%TO.P,SW1,3,3*%
%TO.N,unconnected-(SW1-Pad3)*%
X55000000Y-129000000D03*
%TO.P,SW1,4,4*%
%TO.N,Net-(SW1-Pad4)*%
X60000000Y-129000000D03*
%TD*%
D15*
%TO.P,R1,1*%
%TO.N,Net-(K1-Pad20)*%
X127500000Y-99000000D03*
%TO.P,R1,2*%
%TO.N,Net-(D1-A)*%
X128140000Y-99000000D03*
%TD*%
D16*
%TO.P,K1,1*%
%TO.N,Net-(U1-VBUS)*%
X118750000Y-75150000D03*
D17*
%TO.P,K1,2,GND*%
%TO.N,Net-(K1-GND-Pad10)*%
X118500000Y-76420000D03*
D18*
%TO.P,K1,5,GND*%
X118500000Y-80230000D03*
D19*
%TO.P,K1,6*%
%TO.N,Net-(U1-GPIO22)*%
X118500000Y-81500000D03*
D18*
%TO.P,K1,7,GND*%
%TO.N,Net-(K1-GND-Pad10)*%
X118500000Y-82770000D03*
D17*
%TO.P,K1,10,GND*%
X118500000Y-86580000D03*
D16*
%TO.P,K1,11*%
%TO.N,Net-(U1-3V3)*%
X118750000Y-87850000D03*
%TO.P,K1,12,GND*%
%TO.N,Net-(K1-GND-Pad10)*%
X126250000Y-87850000D03*
D18*
%TO.P,K1,13,GND*%
X126500000Y-86580000D03*
D19*
%TO.P,K1,14*%
%TO.N,unconnected-(K1-Pad14)*%
X126500000Y-85310000D03*
D18*
%TO.P,K1,15,GND*%
%TO.N,Net-(K1-GND-Pad10)*%
X126500000Y-84040000D03*
D17*
%TO.P,K1,17,GND*%
X126500000Y-81500000D03*
D18*
%TO.P,K1,19,GND*%
X126500000Y-78960000D03*
D19*
%TO.P,K1,20*%
%TO.N,Net-(K1-Pad20)*%
X126500000Y-77690000D03*
D18*
%TO.P,K1,21,GND*%
%TO.N,Net-(K1-GND-Pad10)*%
X126500000Y-76420000D03*
D16*
%TO.P,K1,22,GND*%
X126250000Y-75150000D03*
%TD*%
D20*
%TO.P,D1,1,K*%
%TO.N,Net-(D1-K)*%
X117460000Y-115500000D03*
D21*
%TO.P,D1,2,A*%
%TO.N,Net-(D1-A)*%
X120000000Y-115500000D03*
%TD*%
D22*
%TO.N,Net-(K1-GND-Pad10)*%
X118500000Y-86580000D03*
%TD*%
D23*
%TO.N,Net-(K1-GND-Pad10)*%
X127500000Y-98201544D02*
X127500000Y-98500000D01*
X128670000Y-77570000D02*
X128670000Y-97031544D01*
X128670000Y-97031544D02*
X127500000Y-98201544D01*
X126250000Y-75150000D02*
X128670000Y-77570000D01*
X117200000Y-88500000D02*
X117200000Y-84070000D01*
X120300000Y-88500000D02*
X117200000Y-88500000D01*
X117200000Y-84070000D02*
X118500000Y-82770000D01*
X120600000Y-88200000D02*
X120300000Y-88500000D01*
X120600000Y-81130000D02*
X120600000Y-88200000D01*
X119700000Y-80230000D02*
X120600000Y-81130000D01*
X118500000Y-80230000D02*
X119700000Y-80230000D01*
X117200000Y-88500000D02*
X117200000Y-87200000D01*
X117200000Y-87200000D02*
X117820000Y-86580000D01*
X117820000Y-86580000D02*
X118500000Y-86580000D01*
X120600000Y-78520000D02*
X120600000Y-88200000D01*
X118500000Y-76420000D02*
X120600000Y-78520000D01*
X124980000Y-76420000D02*
X126250000Y-75150000D01*
X118500000Y-76420000D02*
X124980000Y-76420000D01*
%TO.N,Net-(U1-GPIO10)*%
X65500000Y-118500000D02*
X65500000Y-106500000D01*
X68240000Y-103760000D02*
X75000000Y-103760000D01*
X60000000Y-124000000D02*
X65500000Y-118500000D01*
X65500000Y-106500000D02*
X68240000Y-103760000D01*
%TO.N,Net-(SW1-Pad4)*%
X69000000Y-115000000D02*
X70080000Y-113920000D01*
X69000000Y-120000000D02*
X69000000Y-115000000D01*
X60000000Y-129000000D02*
X69000000Y-120000000D01*
X70080000Y-113920000D02*
X75000000Y-113920000D01*
%TO.N,Net-(U1-VBUS)*%
X94240000Y-70740000D02*
X98650000Y-75150000D01*
X98650000Y-75150000D02*
X118750000Y-75150000D01*
X92780000Y-70740000D02*
X94240000Y-70740000D01*
%TO.N,Net-(U1-3V3)*%
X120200000Y-87300000D02*
X119650000Y-87850000D01*
X120200000Y-81350000D02*
X120200000Y-87300000D01*
X119650000Y-87850000D02*
X118750000Y-87850000D01*
X119750000Y-80900000D02*
X120200000Y-81350000D01*
X92780000Y-80900000D02*
X119750000Y-80900000D01*
%TO.N,Net-(U1-GPIO22)*%
X115000000Y-81500000D02*
X118500000Y-81500000D01*
X114500000Y-82000000D02*
X115000000Y-81500000D01*
X114000000Y-82000000D02*
X114500000Y-82000000D01*
X97320000Y-98680000D02*
X114000000Y-82000000D01*
X92780000Y-98680000D02*
X97320000Y-98680000D01*
%TO.N,Net-(K1-GND-Pad10)*%
X115000000Y-87000000D02*
X115420000Y-86580000D01*
X114500000Y-87000000D02*
X115000000Y-87000000D01*
X115420000Y-86580000D02*
X118500000Y-86580000D01*
X100280000Y-101220000D02*
X114500000Y-87000000D01*
X92780000Y-101220000D02*
X100280000Y-101220000D01*
%TO.N,Net-(D1-A)*%
X128140000Y-107360000D02*
X128140000Y-99000000D01*
X120000000Y-115500000D02*
X128140000Y-107360000D01*
%TO.N,Net-(D1-K)*%
X115880000Y-113920000D02*
X117460000Y-115500000D01*
X92780000Y-113920000D02*
X115880000Y-113920000D01*
%TD*%
M02*
