%TF.GenerationSoftware,KiCad,Pcbnew,8.0.0*%
%TF.CreationDate,2024-03-31T15:48:46-03:00*%
%TF.ProjectId,schematic,73636865-6d61-4746-9963-2e6b69636164,rev?*%
%TF.SameCoordinates,Original*%
%TF.FileFunction,Soldermask,Bot*%
%TF.FilePolarity,Negative*%
%FSLAX46Y46*%
G04 Gerber Fmt 4.6, Leading zero omitted, Abs format (unit mm)*
G04 Created by KiCad (PCBNEW 8.0.0) date 2024-03-31 15:48:46*
%MOMM*%
%LPD*%
G01*
G04 APERTURE LIST*
%ADD10O,1.800000X1.800000*%
%ADD11O,1.500000X1.500000*%
%ADD12O,1.700000X1.700000*%
%ADD13R,1.700000X1.700000*%
%ADD14C,2.000000*%
%ADD15R,1.800000X1.800000*%
%ADD16C,1.800000*%
G04 APERTURE END LIST*
D10*
%TO.C,U1*%
X81165000Y-70870000D03*
D11*
X81465000Y-73900000D03*
X86315000Y-73900000D03*
D10*
X86615000Y-70870000D03*
D12*
X75000000Y-70740000D03*
X75000000Y-73280000D03*
D13*
X75000000Y-75820000D03*
D12*
X75000000Y-78360000D03*
X75000000Y-80900000D03*
X75000000Y-83440000D03*
X75000000Y-85980000D03*
D13*
X75000000Y-88520000D03*
D12*
X75000000Y-91060000D03*
X75000000Y-93600000D03*
X75000000Y-96140000D03*
X75000000Y-98680000D03*
D13*
X75000000Y-101220000D03*
D12*
X75000000Y-103760000D03*
X75000000Y-106300000D03*
X75000000Y-108840000D03*
X75000000Y-111380000D03*
D13*
X75000000Y-113920000D03*
D12*
X75000000Y-116460000D03*
X75000000Y-119000000D03*
X92780000Y-119000000D03*
X92780000Y-116460000D03*
D13*
X92780000Y-113920000D03*
D12*
X92780000Y-111380000D03*
X92780000Y-108840000D03*
X92780000Y-106300000D03*
X92780000Y-103760000D03*
D13*
X92780000Y-101220000D03*
D12*
X92780000Y-98680000D03*
X92780000Y-96140000D03*
X92780000Y-93600000D03*
X92780000Y-91060000D03*
D13*
X92780000Y-88520000D03*
D12*
X92780000Y-85980000D03*
X92780000Y-83440000D03*
X92780000Y-80900000D03*
X92780000Y-78360000D03*
D13*
X92780000Y-75820000D03*
D12*
X92780000Y-73280000D03*
X92780000Y-70740000D03*
X81350000Y-118770000D03*
D13*
X83890000Y-118770000D03*
D12*
X86430000Y-118770000D03*
%TD*%
D14*
%TO.C,SW1*%
X55000000Y-124000000D03*
X60000000Y-124000000D03*
X55000000Y-129000000D03*
X60000000Y-129000000D03*
%TD*%
D15*
%TO.C,D1*%
X117460000Y-115500000D03*
D16*
X120000000Y-115500000D03*
%TD*%
M02*
