%TF.GenerationSoftware,KiCad,Pcbnew,8.0.0*%
%TF.CreationDate,2024-03-31T15:48:46-03:00*%
%TF.ProjectId,schematic,73636865-6d61-4746-9963-2e6b69636164,rev?*%
%TF.SameCoordinates,Original*%
%TF.FileFunction,Legend,Top*%
%TF.FilePolarity,Positive*%
%FSLAX46Y46*%
G04 Gerber Fmt 4.6, Leading zero omitted, Abs format (unit mm)*
G04 Created by KiCad (PCBNEW 8.0.0) date 2024-03-31 15:48:46*
%MOMM*%
%LPD*%
G01*
G04 APERTURE LIST*
%ADD10C,0.150000*%
%ADD11C,0.120000*%
G04 APERTURE END LIST*
D10*
X83128095Y-94324819D02*
X83128095Y-95134342D01*
X83128095Y-95134342D02*
X83175714Y-95229580D01*
X83175714Y-95229580D02*
X83223333Y-95277200D01*
X83223333Y-95277200D02*
X83318571Y-95324819D01*
X83318571Y-95324819D02*
X83509047Y-95324819D01*
X83509047Y-95324819D02*
X83604285Y-95277200D01*
X83604285Y-95277200D02*
X83651904Y-95229580D01*
X83651904Y-95229580D02*
X83699523Y-95134342D01*
X83699523Y-95134342D02*
X83699523Y-94324819D01*
X84699523Y-95324819D02*
X84128095Y-95324819D01*
X84413809Y-95324819D02*
X84413809Y-94324819D01*
X84413809Y-94324819D02*
X84318571Y-94467676D01*
X84318571Y-94467676D02*
X84223333Y-94562914D01*
X84223333Y-94562914D02*
X84128095Y-94610533D01*
X69733998Y-106690868D02*
X69653185Y-106717805D01*
X69653185Y-106717805D02*
X69572373Y-106798618D01*
X69572373Y-106798618D02*
X69518498Y-106906367D01*
X69518498Y-106906367D02*
X69518498Y-107014117D01*
X69518498Y-107014117D02*
X69545436Y-107094929D01*
X69545436Y-107094929D02*
X69626248Y-107229616D01*
X69626248Y-107229616D02*
X69707060Y-107310428D01*
X69707060Y-107310428D02*
X69841747Y-107391241D01*
X69841747Y-107391241D02*
X69922560Y-107418178D01*
X69922560Y-107418178D02*
X70030309Y-107418178D01*
X70030309Y-107418178D02*
X70138059Y-107364303D01*
X70138059Y-107364303D02*
X70191934Y-107310428D01*
X70191934Y-107310428D02*
X70245808Y-107202679D01*
X70245808Y-107202679D02*
X70245808Y-107148804D01*
X70245808Y-107148804D02*
X70057247Y-106960242D01*
X70057247Y-106960242D02*
X69949497Y-107067992D01*
X70542120Y-106960242D02*
X69976434Y-106394557D01*
X69976434Y-106394557D02*
X70191934Y-106179057D01*
X70191934Y-106179057D02*
X70272746Y-106152120D01*
X70272746Y-106152120D02*
X70326621Y-106152120D01*
X70326621Y-106152120D02*
X70407433Y-106179057D01*
X70407433Y-106179057D02*
X70488245Y-106259870D01*
X70488245Y-106259870D02*
X70515182Y-106340682D01*
X70515182Y-106340682D02*
X70515182Y-106394557D01*
X70515182Y-106394557D02*
X70488245Y-106475369D01*
X70488245Y-106475369D02*
X70272746Y-106690868D01*
X71404117Y-106098245D02*
X71080868Y-106421494D01*
X71242492Y-106259870D02*
X70676807Y-105694184D01*
X70676807Y-105694184D02*
X70703744Y-105828871D01*
X70703744Y-105828871D02*
X70703744Y-105936621D01*
X70703744Y-105936621D02*
X70676807Y-106017433D01*
X71942865Y-105559497D02*
X71619616Y-105882746D01*
X71781240Y-105721121D02*
X71215555Y-105155436D01*
X71215555Y-105155436D02*
X71242492Y-105290123D01*
X71242492Y-105290123D02*
X71242492Y-105397873D01*
X71242492Y-105397873D02*
X71215555Y-105478685D01*
X96041873Y-89611240D02*
X96311247Y-89341866D01*
X96149623Y-89826739D02*
X95772499Y-89072492D01*
X95772499Y-89072492D02*
X96526746Y-89449615D01*
X96472871Y-88425994D02*
X96392059Y-88452932D01*
X96392059Y-88452932D02*
X96311247Y-88533744D01*
X96311247Y-88533744D02*
X96257372Y-88641494D01*
X96257372Y-88641494D02*
X96257372Y-88749243D01*
X96257372Y-88749243D02*
X96284310Y-88830055D01*
X96284310Y-88830055D02*
X96365122Y-88964742D01*
X96365122Y-88964742D02*
X96445934Y-89045555D01*
X96445934Y-89045555D02*
X96580621Y-89126367D01*
X96580621Y-89126367D02*
X96661433Y-89153304D01*
X96661433Y-89153304D02*
X96769183Y-89153304D01*
X96769183Y-89153304D02*
X96876932Y-89099429D01*
X96876932Y-89099429D02*
X96930807Y-89045555D01*
X96930807Y-89045555D02*
X96984682Y-88937805D01*
X96984682Y-88937805D02*
X96984682Y-88883930D01*
X96984682Y-88883930D02*
X96796120Y-88695368D01*
X96796120Y-88695368D02*
X96688371Y-88803118D01*
X97280993Y-88695368D02*
X96715308Y-88129683D01*
X96715308Y-88129683D02*
X97604242Y-88372120D01*
X97604242Y-88372120D02*
X97038557Y-87806434D01*
X97873616Y-88102746D02*
X97307931Y-87537060D01*
X97307931Y-87537060D02*
X97442618Y-87402373D01*
X97442618Y-87402373D02*
X97550367Y-87348498D01*
X97550367Y-87348498D02*
X97658117Y-87348498D01*
X97658117Y-87348498D02*
X97738929Y-87375436D01*
X97738929Y-87375436D02*
X97873616Y-87456248D01*
X97873616Y-87456248D02*
X97954428Y-87537060D01*
X97954428Y-87537060D02*
X98035241Y-87671747D01*
X98035241Y-87671747D02*
X98062178Y-87752560D01*
X98062178Y-87752560D02*
X98062178Y-87860309D01*
X98062178Y-87860309D02*
X98008303Y-87968059D01*
X98008303Y-87968059D02*
X97873616Y-88102746D01*
X95976435Y-114068431D02*
X95895623Y-114095368D01*
X95895623Y-114095368D02*
X95814811Y-114176180D01*
X95814811Y-114176180D02*
X95760936Y-114283930D01*
X95760936Y-114283930D02*
X95760936Y-114391680D01*
X95760936Y-114391680D02*
X95787873Y-114472492D01*
X95787873Y-114472492D02*
X95868685Y-114607179D01*
X95868685Y-114607179D02*
X95949498Y-114687991D01*
X95949498Y-114687991D02*
X96084185Y-114768803D01*
X96084185Y-114768803D02*
X96164997Y-114795741D01*
X96164997Y-114795741D02*
X96272746Y-114795741D01*
X96272746Y-114795741D02*
X96380496Y-114741866D01*
X96380496Y-114741866D02*
X96434371Y-114687991D01*
X96434371Y-114687991D02*
X96488246Y-114580241D01*
X96488246Y-114580241D02*
X96488246Y-114526367D01*
X96488246Y-114526367D02*
X96299684Y-114337805D01*
X96299684Y-114337805D02*
X96191934Y-114445554D01*
X96784557Y-114337805D02*
X96218872Y-113772119D01*
X96218872Y-113772119D02*
X97107806Y-114014556D01*
X97107806Y-114014556D02*
X96542120Y-113448871D01*
X97377180Y-113745182D02*
X96811494Y-113179497D01*
X96811494Y-113179497D02*
X96946181Y-113044810D01*
X96946181Y-113044810D02*
X97053931Y-112990935D01*
X97053931Y-112990935D02*
X97161680Y-112990935D01*
X97161680Y-112990935D02*
X97242493Y-113017872D01*
X97242493Y-113017872D02*
X97377180Y-113098685D01*
X97377180Y-113098685D02*
X97457992Y-113179497D01*
X97457992Y-113179497D02*
X97538804Y-113314184D01*
X97538804Y-113314184D02*
X97565741Y-113394996D01*
X97565741Y-113394996D02*
X97565741Y-113502746D01*
X97565741Y-113502746D02*
X97511867Y-113610495D01*
X97511867Y-113610495D02*
X97377180Y-113745182D01*
X95843406Y-71397585D02*
X96597653Y-71774709D01*
X96597653Y-71774709D02*
X96220529Y-71020462D01*
X96867027Y-70912712D02*
X96974776Y-70858838D01*
X96974776Y-70858838D02*
X97028651Y-70858838D01*
X97028651Y-70858838D02*
X97109463Y-70885775D01*
X97109463Y-70885775D02*
X97190276Y-70966587D01*
X97190276Y-70966587D02*
X97217213Y-71047399D01*
X97217213Y-71047399D02*
X97217213Y-71101274D01*
X97217213Y-71101274D02*
X97190276Y-71182086D01*
X97190276Y-71182086D02*
X96974776Y-71397586D01*
X96974776Y-71397586D02*
X96409091Y-70831900D01*
X96409091Y-70831900D02*
X96597653Y-70643338D01*
X96597653Y-70643338D02*
X96678465Y-70616401D01*
X96678465Y-70616401D02*
X96732340Y-70616401D01*
X96732340Y-70616401D02*
X96813152Y-70643338D01*
X96813152Y-70643338D02*
X96867027Y-70697213D01*
X96867027Y-70697213D02*
X96893964Y-70778025D01*
X96893964Y-70778025D02*
X96893964Y-70831900D01*
X96893964Y-70831900D02*
X96867027Y-70912712D01*
X96867027Y-70912712D02*
X96678465Y-71101274D01*
X96974776Y-70266215D02*
X97432712Y-70724151D01*
X97432712Y-70724151D02*
X97513524Y-70751088D01*
X97513524Y-70751088D02*
X97567399Y-70751088D01*
X97567399Y-70751088D02*
X97648211Y-70724151D01*
X97648211Y-70724151D02*
X97755961Y-70616401D01*
X97755961Y-70616401D02*
X97782898Y-70535589D01*
X97782898Y-70535589D02*
X97782898Y-70481714D01*
X97782898Y-70481714D02*
X97755961Y-70400902D01*
X97755961Y-70400902D02*
X97298025Y-69942966D01*
X98079210Y-70239277D02*
X98186959Y-70185403D01*
X98186959Y-70185403D02*
X98321646Y-70050716D01*
X98321646Y-70050716D02*
X98348584Y-69969903D01*
X98348584Y-69969903D02*
X98348584Y-69916029D01*
X98348584Y-69916029D02*
X98321646Y-69835216D01*
X98321646Y-69835216D02*
X98267771Y-69781342D01*
X98267771Y-69781342D02*
X98186959Y-69754404D01*
X98186959Y-69754404D02*
X98133084Y-69754404D01*
X98133084Y-69754404D02*
X98052272Y-69781342D01*
X98052272Y-69781342D02*
X97917585Y-69862154D01*
X97917585Y-69862154D02*
X97836773Y-69889091D01*
X97836773Y-69889091D02*
X97782898Y-69889091D01*
X97782898Y-69889091D02*
X97702086Y-69862154D01*
X97702086Y-69862154D02*
X97648211Y-69808279D01*
X97648211Y-69808279D02*
X97621274Y-69727467D01*
X97621274Y-69727467D02*
X97621274Y-69673592D01*
X97621274Y-69673592D02*
X97648211Y-69592780D01*
X97648211Y-69592780D02*
X97782898Y-69458093D01*
X97782898Y-69458093D02*
X97890648Y-69404218D01*
X95976435Y-75968431D02*
X95895623Y-75995368D01*
X95895623Y-75995368D02*
X95814811Y-76076180D01*
X95814811Y-76076180D02*
X95760936Y-76183930D01*
X95760936Y-76183930D02*
X95760936Y-76291680D01*
X95760936Y-76291680D02*
X95787873Y-76372492D01*
X95787873Y-76372492D02*
X95868685Y-76507179D01*
X95868685Y-76507179D02*
X95949498Y-76587991D01*
X95949498Y-76587991D02*
X96084185Y-76668803D01*
X96084185Y-76668803D02*
X96164997Y-76695741D01*
X96164997Y-76695741D02*
X96272746Y-76695741D01*
X96272746Y-76695741D02*
X96380496Y-76641866D01*
X96380496Y-76641866D02*
X96434371Y-76587991D01*
X96434371Y-76587991D02*
X96488246Y-76480241D01*
X96488246Y-76480241D02*
X96488246Y-76426367D01*
X96488246Y-76426367D02*
X96299684Y-76237805D01*
X96299684Y-76237805D02*
X96191934Y-76345554D01*
X96784557Y-76237805D02*
X96218872Y-75672119D01*
X96218872Y-75672119D02*
X97107806Y-75914556D01*
X97107806Y-75914556D02*
X96542120Y-75348871D01*
X97377180Y-75645182D02*
X96811494Y-75079497D01*
X96811494Y-75079497D02*
X96946181Y-74944810D01*
X96946181Y-74944810D02*
X97053931Y-74890935D01*
X97053931Y-74890935D02*
X97161680Y-74890935D01*
X97161680Y-74890935D02*
X97242493Y-74917872D01*
X97242493Y-74917872D02*
X97377180Y-74998685D01*
X97377180Y-74998685D02*
X97457992Y-75079497D01*
X97457992Y-75079497D02*
X97538804Y-75214184D01*
X97538804Y-75214184D02*
X97565741Y-75294996D01*
X97565741Y-75294996D02*
X97565741Y-75402746D01*
X97565741Y-75402746D02*
X97511867Y-75510495D01*
X97511867Y-75510495D02*
X97377180Y-75645182D01*
X69879998Y-111770868D02*
X69799185Y-111797805D01*
X69799185Y-111797805D02*
X69718373Y-111878618D01*
X69718373Y-111878618D02*
X69664498Y-111986367D01*
X69664498Y-111986367D02*
X69664498Y-112094117D01*
X69664498Y-112094117D02*
X69691436Y-112174929D01*
X69691436Y-112174929D02*
X69772248Y-112309616D01*
X69772248Y-112309616D02*
X69853060Y-112390428D01*
X69853060Y-112390428D02*
X69987747Y-112471241D01*
X69987747Y-112471241D02*
X70068560Y-112498178D01*
X70068560Y-112498178D02*
X70176309Y-112498178D01*
X70176309Y-112498178D02*
X70284059Y-112444303D01*
X70284059Y-112444303D02*
X70337934Y-112390428D01*
X70337934Y-112390428D02*
X70391808Y-112282679D01*
X70391808Y-112282679D02*
X70391808Y-112228804D01*
X70391808Y-112228804D02*
X70203247Y-112040242D01*
X70203247Y-112040242D02*
X70095497Y-112147992D01*
X70688120Y-112040242D02*
X70122434Y-111474557D01*
X70122434Y-111474557D02*
X70337934Y-111259057D01*
X70337934Y-111259057D02*
X70418746Y-111232120D01*
X70418746Y-111232120D02*
X70472621Y-111232120D01*
X70472621Y-111232120D02*
X70553433Y-111259057D01*
X70553433Y-111259057D02*
X70634245Y-111339870D01*
X70634245Y-111339870D02*
X70661182Y-111420682D01*
X70661182Y-111420682D02*
X70661182Y-111474557D01*
X70661182Y-111474557D02*
X70634245Y-111555369D01*
X70634245Y-111555369D02*
X70418746Y-111770868D01*
X71550117Y-111178245D02*
X71226868Y-111501494D01*
X71388492Y-111339870D02*
X70822807Y-110774184D01*
X70822807Y-110774184D02*
X70849744Y-110908871D01*
X70849744Y-110908871D02*
X70849744Y-111016621D01*
X70849744Y-111016621D02*
X70822807Y-111097433D01*
X71172993Y-110423998D02*
X71523179Y-110073812D01*
X71523179Y-110073812D02*
X71550117Y-110477873D01*
X71550117Y-110477873D02*
X71630929Y-110397060D01*
X71630929Y-110397060D02*
X71711741Y-110370123D01*
X71711741Y-110370123D02*
X71765616Y-110370123D01*
X71765616Y-110370123D02*
X71846428Y-110397060D01*
X71846428Y-110397060D02*
X71981115Y-110531747D01*
X71981115Y-110531747D02*
X72008053Y-110612560D01*
X72008053Y-110612560D02*
X72008053Y-110666434D01*
X72008053Y-110666434D02*
X71981115Y-110747247D01*
X71981115Y-110747247D02*
X71819491Y-110908871D01*
X71819491Y-110908871D02*
X71738679Y-110935808D01*
X71738679Y-110935808D02*
X71684804Y-110935808D01*
X96045064Y-84404049D02*
X96314438Y-84134675D01*
X96152813Y-84619549D02*
X95775690Y-83865301D01*
X95775690Y-83865301D02*
X96529937Y-84242425D01*
X96718499Y-84053863D02*
X96152813Y-83488178D01*
X96152813Y-83488178D02*
X96287500Y-83353491D01*
X96287500Y-83353491D02*
X96395250Y-83299616D01*
X96395250Y-83299616D02*
X96502999Y-83299616D01*
X96502999Y-83299616D02*
X96583812Y-83326553D01*
X96583812Y-83326553D02*
X96718499Y-83407366D01*
X96718499Y-83407366D02*
X96799311Y-83488178D01*
X96799311Y-83488178D02*
X96880123Y-83622865D01*
X96880123Y-83622865D02*
X96907060Y-83703677D01*
X96907060Y-83703677D02*
X96907060Y-83811427D01*
X96907060Y-83811427D02*
X96853186Y-83919176D01*
X96853186Y-83919176D02*
X96718499Y-84053863D01*
X97553558Y-83111054D02*
X97553558Y-83164929D01*
X97553558Y-83164929D02*
X97499683Y-83272679D01*
X97499683Y-83272679D02*
X97445808Y-83326553D01*
X97445808Y-83326553D02*
X97338059Y-83380428D01*
X97338059Y-83380428D02*
X97230309Y-83380428D01*
X97230309Y-83380428D02*
X97149497Y-83353491D01*
X97149497Y-83353491D02*
X97014810Y-83272679D01*
X97014810Y-83272679D02*
X96933998Y-83191866D01*
X96933998Y-83191866D02*
X96853186Y-83057179D01*
X96853186Y-83057179D02*
X96826248Y-82976367D01*
X96826248Y-82976367D02*
X96826248Y-82868618D01*
X96826248Y-82868618D02*
X96880123Y-82760868D01*
X96880123Y-82760868D02*
X96933998Y-82706993D01*
X96933998Y-82706993D02*
X97041747Y-82653118D01*
X97041747Y-82653118D02*
X97095622Y-82653118D01*
X97769057Y-83111054D02*
X98200056Y-82680056D01*
X97634370Y-82006621D02*
X98388618Y-82383744D01*
X98388618Y-82383744D02*
X98011494Y-81629497D01*
X99088990Y-81683372D02*
X98631054Y-81602560D01*
X98765741Y-82006621D02*
X98200056Y-81440935D01*
X98200056Y-81440935D02*
X98415555Y-81225436D01*
X98415555Y-81225436D02*
X98496367Y-81198499D01*
X98496367Y-81198499D02*
X98550242Y-81198499D01*
X98550242Y-81198499D02*
X98631054Y-81225436D01*
X98631054Y-81225436D02*
X98711866Y-81306248D01*
X98711866Y-81306248D02*
X98738804Y-81387061D01*
X98738804Y-81387061D02*
X98738804Y-81440935D01*
X98738804Y-81440935D02*
X98711866Y-81521748D01*
X98711866Y-81521748D02*
X98496367Y-81737247D01*
X99035115Y-81144624D02*
X99223677Y-80956062D01*
X99600800Y-81171561D02*
X99331426Y-81440935D01*
X99331426Y-81440935D02*
X98765741Y-80875250D01*
X98765741Y-80875250D02*
X99035115Y-80605876D01*
X99735488Y-80444251D02*
X99546926Y-80632813D01*
X99843237Y-80929125D02*
X99277552Y-80363439D01*
X99277552Y-80363439D02*
X99546926Y-80094065D01*
X70403372Y-83561494D02*
X70322560Y-83588431D01*
X70322560Y-83588431D02*
X70241748Y-83669243D01*
X70241748Y-83669243D02*
X70187873Y-83776993D01*
X70187873Y-83776993D02*
X70187873Y-83884742D01*
X70187873Y-83884742D02*
X70214810Y-83965555D01*
X70214810Y-83965555D02*
X70295623Y-84100242D01*
X70295623Y-84100242D02*
X70376435Y-84181054D01*
X70376435Y-84181054D02*
X70511122Y-84261866D01*
X70511122Y-84261866D02*
X70591934Y-84288803D01*
X70591934Y-84288803D02*
X70699684Y-84288803D01*
X70699684Y-84288803D02*
X70807433Y-84234929D01*
X70807433Y-84234929D02*
X70861308Y-84181054D01*
X70861308Y-84181054D02*
X70915183Y-84073304D01*
X70915183Y-84073304D02*
X70915183Y-84019429D01*
X70915183Y-84019429D02*
X70726621Y-83830868D01*
X70726621Y-83830868D02*
X70618871Y-83938617D01*
X71211494Y-83830868D02*
X70645809Y-83265182D01*
X70645809Y-83265182D02*
X70861308Y-83049683D01*
X70861308Y-83049683D02*
X70942120Y-83022746D01*
X70942120Y-83022746D02*
X70995995Y-83022746D01*
X70995995Y-83022746D02*
X71076807Y-83049683D01*
X71076807Y-83049683D02*
X71157619Y-83130495D01*
X71157619Y-83130495D02*
X71184557Y-83211307D01*
X71184557Y-83211307D02*
X71184557Y-83265182D01*
X71184557Y-83265182D02*
X71157619Y-83345994D01*
X71157619Y-83345994D02*
X70942120Y-83561494D01*
X71642493Y-82645622D02*
X72019616Y-83022746D01*
X71292306Y-82564810D02*
X71561680Y-83103558D01*
X71561680Y-83103558D02*
X71911867Y-82753372D01*
X70503372Y-93691494D02*
X70422560Y-93718431D01*
X70422560Y-93718431D02*
X70341748Y-93799243D01*
X70341748Y-93799243D02*
X70287873Y-93906993D01*
X70287873Y-93906993D02*
X70287873Y-94014742D01*
X70287873Y-94014742D02*
X70314810Y-94095555D01*
X70314810Y-94095555D02*
X70395623Y-94230242D01*
X70395623Y-94230242D02*
X70476435Y-94311054D01*
X70476435Y-94311054D02*
X70611122Y-94391866D01*
X70611122Y-94391866D02*
X70691934Y-94418803D01*
X70691934Y-94418803D02*
X70799684Y-94418803D01*
X70799684Y-94418803D02*
X70907433Y-94364929D01*
X70907433Y-94364929D02*
X70961308Y-94311054D01*
X70961308Y-94311054D02*
X71015183Y-94203304D01*
X71015183Y-94203304D02*
X71015183Y-94149429D01*
X71015183Y-94149429D02*
X70826621Y-93960868D01*
X70826621Y-93960868D02*
X70718871Y-94068617D01*
X71311494Y-93960868D02*
X70745809Y-93395182D01*
X70745809Y-93395182D02*
X70961308Y-93179683D01*
X70961308Y-93179683D02*
X71042120Y-93152746D01*
X71042120Y-93152746D02*
X71095995Y-93152746D01*
X71095995Y-93152746D02*
X71176807Y-93179683D01*
X71176807Y-93179683D02*
X71257619Y-93260495D01*
X71257619Y-93260495D02*
X71284557Y-93341307D01*
X71284557Y-93341307D02*
X71284557Y-93395182D01*
X71284557Y-93395182D02*
X71257619Y-93475994D01*
X71257619Y-93475994D02*
X71042120Y-93691494D01*
X71257619Y-92883372D02*
X71634743Y-92506248D01*
X71634743Y-92506248D02*
X71957992Y-93314370D01*
X69879998Y-119390868D02*
X69799185Y-119417805D01*
X69799185Y-119417805D02*
X69718373Y-119498618D01*
X69718373Y-119498618D02*
X69664498Y-119606367D01*
X69664498Y-119606367D02*
X69664498Y-119714117D01*
X69664498Y-119714117D02*
X69691436Y-119794929D01*
X69691436Y-119794929D02*
X69772248Y-119929616D01*
X69772248Y-119929616D02*
X69853060Y-120010428D01*
X69853060Y-120010428D02*
X69987747Y-120091241D01*
X69987747Y-120091241D02*
X70068560Y-120118178D01*
X70068560Y-120118178D02*
X70176309Y-120118178D01*
X70176309Y-120118178D02*
X70284059Y-120064303D01*
X70284059Y-120064303D02*
X70337934Y-120010428D01*
X70337934Y-120010428D02*
X70391808Y-119902679D01*
X70391808Y-119902679D02*
X70391808Y-119848804D01*
X70391808Y-119848804D02*
X70203247Y-119660242D01*
X70203247Y-119660242D02*
X70095497Y-119767992D01*
X70688120Y-119660242D02*
X70122434Y-119094557D01*
X70122434Y-119094557D02*
X70337934Y-118879057D01*
X70337934Y-118879057D02*
X70418746Y-118852120D01*
X70418746Y-118852120D02*
X70472621Y-118852120D01*
X70472621Y-118852120D02*
X70553433Y-118879057D01*
X70553433Y-118879057D02*
X70634245Y-118959870D01*
X70634245Y-118959870D02*
X70661182Y-119040682D01*
X70661182Y-119040682D02*
X70661182Y-119094557D01*
X70661182Y-119094557D02*
X70634245Y-119175369D01*
X70634245Y-119175369D02*
X70418746Y-119390868D01*
X71550117Y-118798245D02*
X71226868Y-119121494D01*
X71388492Y-118959870D02*
X70822807Y-118394184D01*
X70822807Y-118394184D02*
X70849744Y-118528871D01*
X70849744Y-118528871D02*
X70849744Y-118636621D01*
X70849744Y-118636621D02*
X70822807Y-118717433D01*
X71496242Y-117720749D02*
X71226868Y-117990123D01*
X71226868Y-117990123D02*
X71469305Y-118286434D01*
X71469305Y-118286434D02*
X71469305Y-118232560D01*
X71469305Y-118232560D02*
X71496242Y-118151747D01*
X71496242Y-118151747D02*
X71630929Y-118017060D01*
X71630929Y-118017060D02*
X71711741Y-117990123D01*
X71711741Y-117990123D02*
X71765616Y-117990123D01*
X71765616Y-117990123D02*
X71846428Y-118017060D01*
X71846428Y-118017060D02*
X71981115Y-118151747D01*
X71981115Y-118151747D02*
X72008053Y-118232560D01*
X72008053Y-118232560D02*
X72008053Y-118286434D01*
X72008053Y-118286434D02*
X71981115Y-118367247D01*
X71981115Y-118367247D02*
X71846428Y-118501934D01*
X71846428Y-118501934D02*
X71765616Y-118528871D01*
X71765616Y-118528871D02*
X71711741Y-118528871D01*
X95987998Y-116850868D02*
X95907185Y-116877805D01*
X95907185Y-116877805D02*
X95826373Y-116958618D01*
X95826373Y-116958618D02*
X95772498Y-117066367D01*
X95772498Y-117066367D02*
X95772498Y-117174117D01*
X95772498Y-117174117D02*
X95799436Y-117254929D01*
X95799436Y-117254929D02*
X95880248Y-117389616D01*
X95880248Y-117389616D02*
X95961060Y-117470428D01*
X95961060Y-117470428D02*
X96095747Y-117551241D01*
X96095747Y-117551241D02*
X96176560Y-117578178D01*
X96176560Y-117578178D02*
X96284309Y-117578178D01*
X96284309Y-117578178D02*
X96392059Y-117524303D01*
X96392059Y-117524303D02*
X96445934Y-117470428D01*
X96445934Y-117470428D02*
X96499808Y-117362679D01*
X96499808Y-117362679D02*
X96499808Y-117308804D01*
X96499808Y-117308804D02*
X96311247Y-117120242D01*
X96311247Y-117120242D02*
X96203497Y-117227992D01*
X96796120Y-117120242D02*
X96230434Y-116554557D01*
X96230434Y-116554557D02*
X96445934Y-116339057D01*
X96445934Y-116339057D02*
X96526746Y-116312120D01*
X96526746Y-116312120D02*
X96580621Y-116312120D01*
X96580621Y-116312120D02*
X96661433Y-116339057D01*
X96661433Y-116339057D02*
X96742245Y-116419870D01*
X96742245Y-116419870D02*
X96769182Y-116500682D01*
X96769182Y-116500682D02*
X96769182Y-116554557D01*
X96769182Y-116554557D02*
X96742245Y-116635369D01*
X96742245Y-116635369D02*
X96526746Y-116850868D01*
X97658117Y-116258245D02*
X97334868Y-116581494D01*
X97496492Y-116419870D02*
X96930807Y-115854184D01*
X96930807Y-115854184D02*
X96957744Y-115988871D01*
X96957744Y-115988871D02*
X96957744Y-116096621D01*
X96957744Y-116096621D02*
X96930807Y-116177433D01*
X97280993Y-115503998D02*
X97658117Y-115126874D01*
X97658117Y-115126874D02*
X97981366Y-115934996D01*
X95987998Y-93990868D02*
X95907185Y-94017805D01*
X95907185Y-94017805D02*
X95826373Y-94098618D01*
X95826373Y-94098618D02*
X95772498Y-94206367D01*
X95772498Y-94206367D02*
X95772498Y-94314117D01*
X95772498Y-94314117D02*
X95799436Y-94394929D01*
X95799436Y-94394929D02*
X95880248Y-94529616D01*
X95880248Y-94529616D02*
X95961060Y-94610428D01*
X95961060Y-94610428D02*
X96095747Y-94691241D01*
X96095747Y-94691241D02*
X96176560Y-94718178D01*
X96176560Y-94718178D02*
X96284309Y-94718178D01*
X96284309Y-94718178D02*
X96392059Y-94664303D01*
X96392059Y-94664303D02*
X96445934Y-94610428D01*
X96445934Y-94610428D02*
X96499808Y-94502679D01*
X96499808Y-94502679D02*
X96499808Y-94448804D01*
X96499808Y-94448804D02*
X96311247Y-94260242D01*
X96311247Y-94260242D02*
X96203497Y-94367992D01*
X96796120Y-94260242D02*
X96230434Y-93694557D01*
X96230434Y-93694557D02*
X96445934Y-93479057D01*
X96445934Y-93479057D02*
X96526746Y-93452120D01*
X96526746Y-93452120D02*
X96580621Y-93452120D01*
X96580621Y-93452120D02*
X96661433Y-93479057D01*
X96661433Y-93479057D02*
X96742245Y-93559870D01*
X96742245Y-93559870D02*
X96769182Y-93640682D01*
X96769182Y-93640682D02*
X96769182Y-93694557D01*
X96769182Y-93694557D02*
X96742245Y-93775369D01*
X96742245Y-93775369D02*
X96526746Y-93990868D01*
X96823057Y-93209683D02*
X96823057Y-93155809D01*
X96823057Y-93155809D02*
X96849995Y-93074996D01*
X96849995Y-93074996D02*
X96984682Y-92940309D01*
X96984682Y-92940309D02*
X97065494Y-92913372D01*
X97065494Y-92913372D02*
X97119369Y-92913372D01*
X97119369Y-92913372D02*
X97200181Y-92940309D01*
X97200181Y-92940309D02*
X97254056Y-92994184D01*
X97254056Y-92994184D02*
X97307930Y-93101934D01*
X97307930Y-93101934D02*
X97307930Y-93748431D01*
X97307930Y-93748431D02*
X97658117Y-93398245D01*
X97577305Y-92347686D02*
X97469555Y-92455436D01*
X97469555Y-92455436D02*
X97442618Y-92536248D01*
X97442618Y-92536248D02*
X97442618Y-92590123D01*
X97442618Y-92590123D02*
X97469555Y-92724810D01*
X97469555Y-92724810D02*
X97550367Y-92859497D01*
X97550367Y-92859497D02*
X97765866Y-93074996D01*
X97765866Y-93074996D02*
X97846679Y-93101934D01*
X97846679Y-93101934D02*
X97900553Y-93101934D01*
X97900553Y-93101934D02*
X97981366Y-93074996D01*
X97981366Y-93074996D02*
X98089115Y-92967247D01*
X98089115Y-92967247D02*
X98116053Y-92886434D01*
X98116053Y-92886434D02*
X98116053Y-92832560D01*
X98116053Y-92832560D02*
X98089115Y-92751747D01*
X98089115Y-92751747D02*
X97954428Y-92617060D01*
X97954428Y-92617060D02*
X97873616Y-92590123D01*
X97873616Y-92590123D02*
X97819741Y-92590123D01*
X97819741Y-92590123D02*
X97738929Y-92617060D01*
X97738929Y-92617060D02*
X97631179Y-92724810D01*
X97631179Y-92724810D02*
X97604242Y-92805622D01*
X97604242Y-92805622D02*
X97604242Y-92859497D01*
X97604242Y-92859497D02*
X97631179Y-92940309D01*
X76380475Y-121394200D02*
X76494761Y-121432295D01*
X76494761Y-121432295D02*
X76685237Y-121432295D01*
X76685237Y-121432295D02*
X76761428Y-121394200D01*
X76761428Y-121394200D02*
X76799523Y-121356104D01*
X76799523Y-121356104D02*
X76837618Y-121279914D01*
X76837618Y-121279914D02*
X76837618Y-121203723D01*
X76837618Y-121203723D02*
X76799523Y-121127533D01*
X76799523Y-121127533D02*
X76761428Y-121089438D01*
X76761428Y-121089438D02*
X76685237Y-121051342D01*
X76685237Y-121051342D02*
X76532856Y-121013247D01*
X76532856Y-121013247D02*
X76456666Y-120975152D01*
X76456666Y-120975152D02*
X76418571Y-120937057D01*
X76418571Y-120937057D02*
X76380475Y-120860866D01*
X76380475Y-120860866D02*
X76380475Y-120784676D01*
X76380475Y-120784676D02*
X76418571Y-120708485D01*
X76418571Y-120708485D02*
X76456666Y-120670390D01*
X76456666Y-120670390D02*
X76532856Y-120632295D01*
X76532856Y-120632295D02*
X76723333Y-120632295D01*
X76723333Y-120632295D02*
X76837618Y-120670390D01*
X77104285Y-120632295D02*
X77294761Y-121432295D01*
X77294761Y-121432295D02*
X77447142Y-120860866D01*
X77447142Y-120860866D02*
X77599523Y-121432295D01*
X77599523Y-121432295D02*
X77790000Y-120632295D01*
X78551905Y-121356104D02*
X78513809Y-121394200D01*
X78513809Y-121394200D02*
X78399524Y-121432295D01*
X78399524Y-121432295D02*
X78323333Y-121432295D01*
X78323333Y-121432295D02*
X78209047Y-121394200D01*
X78209047Y-121394200D02*
X78132857Y-121318009D01*
X78132857Y-121318009D02*
X78094762Y-121241819D01*
X78094762Y-121241819D02*
X78056666Y-121089438D01*
X78056666Y-121089438D02*
X78056666Y-120975152D01*
X78056666Y-120975152D02*
X78094762Y-120822771D01*
X78094762Y-120822771D02*
X78132857Y-120746580D01*
X78132857Y-120746580D02*
X78209047Y-120670390D01*
X78209047Y-120670390D02*
X78323333Y-120632295D01*
X78323333Y-120632295D02*
X78399524Y-120632295D01*
X78399524Y-120632295D02*
X78513809Y-120670390D01*
X78513809Y-120670390D02*
X78551905Y-120708485D01*
X79275714Y-121432295D02*
X78894762Y-121432295D01*
X78894762Y-121432295D02*
X78894762Y-120632295D01*
X79542381Y-121432295D02*
X79542381Y-120632295D01*
X79999524Y-121432295D02*
X79656666Y-120975152D01*
X79999524Y-120632295D02*
X79542381Y-121089438D01*
X95812407Y-78828584D02*
X96162593Y-78478398D01*
X96162593Y-78478398D02*
X96189531Y-78882459D01*
X96189531Y-78882459D02*
X96270343Y-78801646D01*
X96270343Y-78801646D02*
X96351155Y-78774709D01*
X96351155Y-78774709D02*
X96405030Y-78774709D01*
X96405030Y-78774709D02*
X96485842Y-78801646D01*
X96485842Y-78801646D02*
X96620529Y-78936333D01*
X96620529Y-78936333D02*
X96647467Y-79017146D01*
X96647467Y-79017146D02*
X96647467Y-79071020D01*
X96647467Y-79071020D02*
X96620529Y-79151833D01*
X96620529Y-79151833D02*
X96458905Y-79313457D01*
X96458905Y-79313457D02*
X96378093Y-79340394D01*
X96378093Y-79340394D02*
X96324218Y-79340394D01*
X96324218Y-78316773D02*
X97078465Y-78693897D01*
X97078465Y-78693897D02*
X96701342Y-77939649D01*
X96836028Y-77804963D02*
X97186215Y-77454776D01*
X97186215Y-77454776D02*
X97213152Y-77858837D01*
X97213152Y-77858837D02*
X97293964Y-77778025D01*
X97293964Y-77778025D02*
X97374776Y-77751088D01*
X97374776Y-77751088D02*
X97428651Y-77751088D01*
X97428651Y-77751088D02*
X97509464Y-77778025D01*
X97509464Y-77778025D02*
X97644151Y-77912712D01*
X97644151Y-77912712D02*
X97671088Y-77993524D01*
X97671088Y-77993524D02*
X97671088Y-78047399D01*
X97671088Y-78047399D02*
X97644151Y-78128211D01*
X97644151Y-78128211D02*
X97482526Y-78289836D01*
X97482526Y-78289836D02*
X97401714Y-78316773D01*
X97401714Y-78316773D02*
X97347839Y-78316773D01*
X97913525Y-77966587D02*
X98344523Y-77535588D01*
X98129024Y-77050715D02*
X98317586Y-76862153D01*
X98694709Y-77077652D02*
X98425335Y-77347026D01*
X98425335Y-77347026D02*
X97859650Y-76781341D01*
X97859650Y-76781341D02*
X98129024Y-76511967D01*
X98937146Y-76835215D02*
X98371461Y-76269530D01*
X98371461Y-76269530D02*
X99260395Y-76511967D01*
X99260395Y-76511967D02*
X98694710Y-75946281D01*
X95780123Y-81360868D02*
X96130309Y-81010682D01*
X96130309Y-81010682D02*
X96157247Y-81414743D01*
X96157247Y-81414743D02*
X96238059Y-81333931D01*
X96238059Y-81333931D02*
X96318871Y-81306993D01*
X96318871Y-81306993D02*
X96372746Y-81306993D01*
X96372746Y-81306993D02*
X96453558Y-81333931D01*
X96453558Y-81333931D02*
X96588245Y-81468618D01*
X96588245Y-81468618D02*
X96615182Y-81549430D01*
X96615182Y-81549430D02*
X96615182Y-81603305D01*
X96615182Y-81603305D02*
X96588245Y-81684117D01*
X96588245Y-81684117D02*
X96426621Y-81845741D01*
X96426621Y-81845741D02*
X96345808Y-81872679D01*
X96345808Y-81872679D02*
X96291934Y-81872679D01*
X96291934Y-80849057D02*
X97046181Y-81226181D01*
X97046181Y-81226181D02*
X96669057Y-80471934D01*
X96803744Y-80337247D02*
X97153930Y-79987061D01*
X97153930Y-79987061D02*
X97180868Y-80391122D01*
X97180868Y-80391122D02*
X97261680Y-80310309D01*
X97261680Y-80310309D02*
X97342492Y-80283372D01*
X97342492Y-80283372D02*
X97396367Y-80283372D01*
X97396367Y-80283372D02*
X97477179Y-80310309D01*
X97477179Y-80310309D02*
X97611866Y-80444996D01*
X97611866Y-80444996D02*
X97638804Y-80525809D01*
X97638804Y-80525809D02*
X97638804Y-80579683D01*
X97638804Y-80579683D02*
X97611866Y-80660496D01*
X97611866Y-80660496D02*
X97450242Y-80822120D01*
X97450242Y-80822120D02*
X97369430Y-80849057D01*
X97369430Y-80849057D02*
X97315555Y-80849057D01*
X70403372Y-96261494D02*
X70322560Y-96288431D01*
X70322560Y-96288431D02*
X70241748Y-96369243D01*
X70241748Y-96369243D02*
X70187873Y-96476993D01*
X70187873Y-96476993D02*
X70187873Y-96584742D01*
X70187873Y-96584742D02*
X70214810Y-96665555D01*
X70214810Y-96665555D02*
X70295623Y-96800242D01*
X70295623Y-96800242D02*
X70376435Y-96881054D01*
X70376435Y-96881054D02*
X70511122Y-96961866D01*
X70511122Y-96961866D02*
X70591934Y-96988803D01*
X70591934Y-96988803D02*
X70699684Y-96988803D01*
X70699684Y-96988803D02*
X70807433Y-96934929D01*
X70807433Y-96934929D02*
X70861308Y-96881054D01*
X70861308Y-96881054D02*
X70915183Y-96773304D01*
X70915183Y-96773304D02*
X70915183Y-96719429D01*
X70915183Y-96719429D02*
X70726621Y-96530868D01*
X70726621Y-96530868D02*
X70618871Y-96638617D01*
X71211494Y-96530868D02*
X70645809Y-95965182D01*
X70645809Y-95965182D02*
X70861308Y-95749683D01*
X70861308Y-95749683D02*
X70942120Y-95722746D01*
X70942120Y-95722746D02*
X70995995Y-95722746D01*
X70995995Y-95722746D02*
X71076807Y-95749683D01*
X71076807Y-95749683D02*
X71157619Y-95830495D01*
X71157619Y-95830495D02*
X71184557Y-95911307D01*
X71184557Y-95911307D02*
X71184557Y-95965182D01*
X71184557Y-95965182D02*
X71157619Y-96045994D01*
X71157619Y-96045994D02*
X70942120Y-96261494D01*
X71534743Y-95561121D02*
X71453931Y-95588059D01*
X71453931Y-95588059D02*
X71400056Y-95588059D01*
X71400056Y-95588059D02*
X71319244Y-95561121D01*
X71319244Y-95561121D02*
X71292306Y-95534184D01*
X71292306Y-95534184D02*
X71265369Y-95453372D01*
X71265369Y-95453372D02*
X71265369Y-95399497D01*
X71265369Y-95399497D02*
X71292306Y-95318685D01*
X71292306Y-95318685D02*
X71400056Y-95210935D01*
X71400056Y-95210935D02*
X71480868Y-95183998D01*
X71480868Y-95183998D02*
X71534743Y-95183998D01*
X71534743Y-95183998D02*
X71615555Y-95210935D01*
X71615555Y-95210935D02*
X71642493Y-95237872D01*
X71642493Y-95237872D02*
X71669430Y-95318685D01*
X71669430Y-95318685D02*
X71669430Y-95372559D01*
X71669430Y-95372559D02*
X71642493Y-95453372D01*
X71642493Y-95453372D02*
X71534743Y-95561121D01*
X71534743Y-95561121D02*
X71507806Y-95641933D01*
X71507806Y-95641933D02*
X71507806Y-95695808D01*
X71507806Y-95695808D02*
X71534743Y-95776620D01*
X71534743Y-95776620D02*
X71642493Y-95884370D01*
X71642493Y-95884370D02*
X71723305Y-95911307D01*
X71723305Y-95911307D02*
X71777180Y-95911307D01*
X71777180Y-95911307D02*
X71857992Y-95884370D01*
X71857992Y-95884370D02*
X71965741Y-95776620D01*
X71965741Y-95776620D02*
X71992679Y-95695808D01*
X71992679Y-95695808D02*
X71992679Y-95641933D01*
X71992679Y-95641933D02*
X71965741Y-95561121D01*
X71965741Y-95561121D02*
X71857992Y-95453372D01*
X71857992Y-95453372D02*
X71777180Y-95426434D01*
X71777180Y-95426434D02*
X71723305Y-95426434D01*
X71723305Y-95426434D02*
X71642493Y-95453372D01*
X95987998Y-119390868D02*
X95907185Y-119417805D01*
X95907185Y-119417805D02*
X95826373Y-119498618D01*
X95826373Y-119498618D02*
X95772498Y-119606367D01*
X95772498Y-119606367D02*
X95772498Y-119714117D01*
X95772498Y-119714117D02*
X95799436Y-119794929D01*
X95799436Y-119794929D02*
X95880248Y-119929616D01*
X95880248Y-119929616D02*
X95961060Y-120010428D01*
X95961060Y-120010428D02*
X96095747Y-120091241D01*
X96095747Y-120091241D02*
X96176560Y-120118178D01*
X96176560Y-120118178D02*
X96284309Y-120118178D01*
X96284309Y-120118178D02*
X96392059Y-120064303D01*
X96392059Y-120064303D02*
X96445934Y-120010428D01*
X96445934Y-120010428D02*
X96499808Y-119902679D01*
X96499808Y-119902679D02*
X96499808Y-119848804D01*
X96499808Y-119848804D02*
X96311247Y-119660242D01*
X96311247Y-119660242D02*
X96203497Y-119767992D01*
X96796120Y-119660242D02*
X96230434Y-119094557D01*
X96230434Y-119094557D02*
X96445934Y-118879057D01*
X96445934Y-118879057D02*
X96526746Y-118852120D01*
X96526746Y-118852120D02*
X96580621Y-118852120D01*
X96580621Y-118852120D02*
X96661433Y-118879057D01*
X96661433Y-118879057D02*
X96742245Y-118959870D01*
X96742245Y-118959870D02*
X96769182Y-119040682D01*
X96769182Y-119040682D02*
X96769182Y-119094557D01*
X96769182Y-119094557D02*
X96742245Y-119175369D01*
X96742245Y-119175369D02*
X96526746Y-119390868D01*
X97658117Y-118798245D02*
X97334868Y-119121494D01*
X97496492Y-118959870D02*
X96930807Y-118394184D01*
X96930807Y-118394184D02*
X96957744Y-118528871D01*
X96957744Y-118528871D02*
X96957744Y-118636621D01*
X96957744Y-118636621D02*
X96930807Y-118717433D01*
X97577305Y-117747686D02*
X97469555Y-117855436D01*
X97469555Y-117855436D02*
X97442618Y-117936248D01*
X97442618Y-117936248D02*
X97442618Y-117990123D01*
X97442618Y-117990123D02*
X97469555Y-118124810D01*
X97469555Y-118124810D02*
X97550367Y-118259497D01*
X97550367Y-118259497D02*
X97765866Y-118474996D01*
X97765866Y-118474996D02*
X97846679Y-118501934D01*
X97846679Y-118501934D02*
X97900553Y-118501934D01*
X97900553Y-118501934D02*
X97981366Y-118474996D01*
X97981366Y-118474996D02*
X98089115Y-118367247D01*
X98089115Y-118367247D02*
X98116053Y-118286434D01*
X98116053Y-118286434D02*
X98116053Y-118232560D01*
X98116053Y-118232560D02*
X98089115Y-118151747D01*
X98089115Y-118151747D02*
X97954428Y-118017060D01*
X97954428Y-118017060D02*
X97873616Y-117990123D01*
X97873616Y-117990123D02*
X97819741Y-117990123D01*
X97819741Y-117990123D02*
X97738929Y-118017060D01*
X97738929Y-118017060D02*
X97631179Y-118124810D01*
X97631179Y-118124810D02*
X97604242Y-118205622D01*
X97604242Y-118205622D02*
X97604242Y-118259497D01*
X97604242Y-118259497D02*
X97631179Y-118340309D01*
X95976435Y-101368431D02*
X95895623Y-101395368D01*
X95895623Y-101395368D02*
X95814811Y-101476180D01*
X95814811Y-101476180D02*
X95760936Y-101583930D01*
X95760936Y-101583930D02*
X95760936Y-101691680D01*
X95760936Y-101691680D02*
X95787873Y-101772492D01*
X95787873Y-101772492D02*
X95868685Y-101907179D01*
X95868685Y-101907179D02*
X95949498Y-101987991D01*
X95949498Y-101987991D02*
X96084185Y-102068803D01*
X96084185Y-102068803D02*
X96164997Y-102095741D01*
X96164997Y-102095741D02*
X96272746Y-102095741D01*
X96272746Y-102095741D02*
X96380496Y-102041866D01*
X96380496Y-102041866D02*
X96434371Y-101987991D01*
X96434371Y-101987991D02*
X96488246Y-101880241D01*
X96488246Y-101880241D02*
X96488246Y-101826367D01*
X96488246Y-101826367D02*
X96299684Y-101637805D01*
X96299684Y-101637805D02*
X96191934Y-101745554D01*
X96784557Y-101637805D02*
X96218872Y-101072119D01*
X96218872Y-101072119D02*
X97107806Y-101314556D01*
X97107806Y-101314556D02*
X96542120Y-100748871D01*
X97377180Y-101045182D02*
X96811494Y-100479497D01*
X96811494Y-100479497D02*
X96946181Y-100344810D01*
X96946181Y-100344810D02*
X97053931Y-100290935D01*
X97053931Y-100290935D02*
X97161680Y-100290935D01*
X97161680Y-100290935D02*
X97242493Y-100317872D01*
X97242493Y-100317872D02*
X97377180Y-100398685D01*
X97377180Y-100398685D02*
X97457992Y-100479497D01*
X97457992Y-100479497D02*
X97538804Y-100614184D01*
X97538804Y-100614184D02*
X97565741Y-100694996D01*
X97565741Y-100694996D02*
X97565741Y-100802746D01*
X97565741Y-100802746D02*
X97511867Y-100910495D01*
X97511867Y-100910495D02*
X97377180Y-101045182D01*
X70376435Y-88668431D02*
X70295623Y-88695368D01*
X70295623Y-88695368D02*
X70214811Y-88776180D01*
X70214811Y-88776180D02*
X70160936Y-88883930D01*
X70160936Y-88883930D02*
X70160936Y-88991680D01*
X70160936Y-88991680D02*
X70187873Y-89072492D01*
X70187873Y-89072492D02*
X70268685Y-89207179D01*
X70268685Y-89207179D02*
X70349498Y-89287991D01*
X70349498Y-89287991D02*
X70484185Y-89368803D01*
X70484185Y-89368803D02*
X70564997Y-89395741D01*
X70564997Y-89395741D02*
X70672746Y-89395741D01*
X70672746Y-89395741D02*
X70780496Y-89341866D01*
X70780496Y-89341866D02*
X70834371Y-89287991D01*
X70834371Y-89287991D02*
X70888246Y-89180241D01*
X70888246Y-89180241D02*
X70888246Y-89126367D01*
X70888246Y-89126367D02*
X70699684Y-88937805D01*
X70699684Y-88937805D02*
X70591934Y-89045554D01*
X71184557Y-88937805D02*
X70618872Y-88372119D01*
X70618872Y-88372119D02*
X71507806Y-88614556D01*
X71507806Y-88614556D02*
X70942120Y-88048871D01*
X71777180Y-88345182D02*
X71211494Y-87779497D01*
X71211494Y-87779497D02*
X71346181Y-87644810D01*
X71346181Y-87644810D02*
X71453931Y-87590935D01*
X71453931Y-87590935D02*
X71561680Y-87590935D01*
X71561680Y-87590935D02*
X71642493Y-87617872D01*
X71642493Y-87617872D02*
X71777180Y-87698685D01*
X71777180Y-87698685D02*
X71857992Y-87779497D01*
X71857992Y-87779497D02*
X71938804Y-87914184D01*
X71938804Y-87914184D02*
X71965741Y-87994996D01*
X71965741Y-87994996D02*
X71965741Y-88102746D01*
X71965741Y-88102746D02*
X71911867Y-88210495D01*
X71911867Y-88210495D02*
X71777180Y-88345182D01*
X95987998Y-86116868D02*
X95907185Y-86143805D01*
X95907185Y-86143805D02*
X95826373Y-86224618D01*
X95826373Y-86224618D02*
X95772498Y-86332367D01*
X95772498Y-86332367D02*
X95772498Y-86440117D01*
X95772498Y-86440117D02*
X95799436Y-86520929D01*
X95799436Y-86520929D02*
X95880248Y-86655616D01*
X95880248Y-86655616D02*
X95961060Y-86736428D01*
X95961060Y-86736428D02*
X96095747Y-86817241D01*
X96095747Y-86817241D02*
X96176560Y-86844178D01*
X96176560Y-86844178D02*
X96284309Y-86844178D01*
X96284309Y-86844178D02*
X96392059Y-86790303D01*
X96392059Y-86790303D02*
X96445934Y-86736428D01*
X96445934Y-86736428D02*
X96499808Y-86628679D01*
X96499808Y-86628679D02*
X96499808Y-86574804D01*
X96499808Y-86574804D02*
X96311247Y-86386242D01*
X96311247Y-86386242D02*
X96203497Y-86493992D01*
X96796120Y-86386242D02*
X96230434Y-85820557D01*
X96230434Y-85820557D02*
X96445934Y-85605057D01*
X96445934Y-85605057D02*
X96526746Y-85578120D01*
X96526746Y-85578120D02*
X96580621Y-85578120D01*
X96580621Y-85578120D02*
X96661433Y-85605057D01*
X96661433Y-85605057D02*
X96742245Y-85685870D01*
X96742245Y-85685870D02*
X96769182Y-85766682D01*
X96769182Y-85766682D02*
X96769182Y-85820557D01*
X96769182Y-85820557D02*
X96742245Y-85901369D01*
X96742245Y-85901369D02*
X96526746Y-86116868D01*
X96823057Y-85335683D02*
X96823057Y-85281809D01*
X96823057Y-85281809D02*
X96849995Y-85200996D01*
X96849995Y-85200996D02*
X96984682Y-85066309D01*
X96984682Y-85066309D02*
X97065494Y-85039372D01*
X97065494Y-85039372D02*
X97119369Y-85039372D01*
X97119369Y-85039372D02*
X97200181Y-85066309D01*
X97200181Y-85066309D02*
X97254056Y-85120184D01*
X97254056Y-85120184D02*
X97307930Y-85227934D01*
X97307930Y-85227934D02*
X97307930Y-85874431D01*
X97307930Y-85874431D02*
X97658117Y-85524245D01*
X97658117Y-84877747D02*
X97577305Y-84904685D01*
X97577305Y-84904685D02*
X97523430Y-84904685D01*
X97523430Y-84904685D02*
X97442618Y-84877747D01*
X97442618Y-84877747D02*
X97415680Y-84850810D01*
X97415680Y-84850810D02*
X97388743Y-84769998D01*
X97388743Y-84769998D02*
X97388743Y-84716123D01*
X97388743Y-84716123D02*
X97415680Y-84635311D01*
X97415680Y-84635311D02*
X97523430Y-84527561D01*
X97523430Y-84527561D02*
X97604242Y-84500624D01*
X97604242Y-84500624D02*
X97658117Y-84500624D01*
X97658117Y-84500624D02*
X97738929Y-84527561D01*
X97738929Y-84527561D02*
X97765866Y-84554499D01*
X97765866Y-84554499D02*
X97792804Y-84635311D01*
X97792804Y-84635311D02*
X97792804Y-84689186D01*
X97792804Y-84689186D02*
X97765866Y-84769998D01*
X97765866Y-84769998D02*
X97658117Y-84877747D01*
X97658117Y-84877747D02*
X97631179Y-84958560D01*
X97631179Y-84958560D02*
X97631179Y-85012434D01*
X97631179Y-85012434D02*
X97658117Y-85093247D01*
X97658117Y-85093247D02*
X97765866Y-85200996D01*
X97765866Y-85200996D02*
X97846679Y-85227934D01*
X97846679Y-85227934D02*
X97900553Y-85227934D01*
X97900553Y-85227934D02*
X97981366Y-85200996D01*
X97981366Y-85200996D02*
X98089115Y-85093247D01*
X98089115Y-85093247D02*
X98116053Y-85012434D01*
X98116053Y-85012434D02*
X98116053Y-84958560D01*
X98116053Y-84958560D02*
X98089115Y-84877747D01*
X98089115Y-84877747D02*
X97981366Y-84769998D01*
X97981366Y-84769998D02*
X97900553Y-84743060D01*
X97900553Y-84743060D02*
X97846679Y-84743060D01*
X97846679Y-84743060D02*
X97765866Y-84769998D01*
X70403372Y-98801494D02*
X70322560Y-98828431D01*
X70322560Y-98828431D02*
X70241748Y-98909243D01*
X70241748Y-98909243D02*
X70187873Y-99016993D01*
X70187873Y-99016993D02*
X70187873Y-99124742D01*
X70187873Y-99124742D02*
X70214810Y-99205555D01*
X70214810Y-99205555D02*
X70295623Y-99340242D01*
X70295623Y-99340242D02*
X70376435Y-99421054D01*
X70376435Y-99421054D02*
X70511122Y-99501866D01*
X70511122Y-99501866D02*
X70591934Y-99528803D01*
X70591934Y-99528803D02*
X70699684Y-99528803D01*
X70699684Y-99528803D02*
X70807433Y-99474929D01*
X70807433Y-99474929D02*
X70861308Y-99421054D01*
X70861308Y-99421054D02*
X70915183Y-99313304D01*
X70915183Y-99313304D02*
X70915183Y-99259429D01*
X70915183Y-99259429D02*
X70726621Y-99070868D01*
X70726621Y-99070868D02*
X70618871Y-99178617D01*
X71211494Y-99070868D02*
X70645809Y-98505182D01*
X70645809Y-98505182D02*
X70861308Y-98289683D01*
X70861308Y-98289683D02*
X70942120Y-98262746D01*
X70942120Y-98262746D02*
X70995995Y-98262746D01*
X70995995Y-98262746D02*
X71076807Y-98289683D01*
X71076807Y-98289683D02*
X71157619Y-98370495D01*
X71157619Y-98370495D02*
X71184557Y-98451307D01*
X71184557Y-98451307D02*
X71184557Y-98505182D01*
X71184557Y-98505182D02*
X71157619Y-98585994D01*
X71157619Y-98585994D02*
X70942120Y-98801494D01*
X71804117Y-98478245D02*
X71911867Y-98370495D01*
X71911867Y-98370495D02*
X71938804Y-98289683D01*
X71938804Y-98289683D02*
X71938804Y-98235808D01*
X71938804Y-98235808D02*
X71911867Y-98101121D01*
X71911867Y-98101121D02*
X71831054Y-97966434D01*
X71831054Y-97966434D02*
X71615555Y-97750935D01*
X71615555Y-97750935D02*
X71534743Y-97723998D01*
X71534743Y-97723998D02*
X71480868Y-97723998D01*
X71480868Y-97723998D02*
X71400056Y-97750935D01*
X71400056Y-97750935D02*
X71292306Y-97858685D01*
X71292306Y-97858685D02*
X71265369Y-97939497D01*
X71265369Y-97939497D02*
X71265369Y-97993372D01*
X71265369Y-97993372D02*
X71292306Y-98074184D01*
X71292306Y-98074184D02*
X71426993Y-98208871D01*
X71426993Y-98208871D02*
X71507806Y-98235808D01*
X71507806Y-98235808D02*
X71561680Y-98235808D01*
X71561680Y-98235808D02*
X71642493Y-98208871D01*
X71642493Y-98208871D02*
X71750242Y-98101121D01*
X71750242Y-98101121D02*
X71777180Y-98020309D01*
X71777180Y-98020309D02*
X71777180Y-97966434D01*
X71777180Y-97966434D02*
X71750242Y-97885622D01*
X87794761Y-121394200D02*
X87909047Y-121432295D01*
X87909047Y-121432295D02*
X88099523Y-121432295D01*
X88099523Y-121432295D02*
X88175714Y-121394200D01*
X88175714Y-121394200D02*
X88213809Y-121356104D01*
X88213809Y-121356104D02*
X88251904Y-121279914D01*
X88251904Y-121279914D02*
X88251904Y-121203723D01*
X88251904Y-121203723D02*
X88213809Y-121127533D01*
X88213809Y-121127533D02*
X88175714Y-121089438D01*
X88175714Y-121089438D02*
X88099523Y-121051342D01*
X88099523Y-121051342D02*
X87947142Y-121013247D01*
X87947142Y-121013247D02*
X87870952Y-120975152D01*
X87870952Y-120975152D02*
X87832857Y-120937057D01*
X87832857Y-120937057D02*
X87794761Y-120860866D01*
X87794761Y-120860866D02*
X87794761Y-120784676D01*
X87794761Y-120784676D02*
X87832857Y-120708485D01*
X87832857Y-120708485D02*
X87870952Y-120670390D01*
X87870952Y-120670390D02*
X87947142Y-120632295D01*
X87947142Y-120632295D02*
X88137619Y-120632295D01*
X88137619Y-120632295D02*
X88251904Y-120670390D01*
X88518571Y-120632295D02*
X88709047Y-121432295D01*
X88709047Y-121432295D02*
X88861428Y-120860866D01*
X88861428Y-120860866D02*
X89013809Y-121432295D01*
X89013809Y-121432295D02*
X89204286Y-120632295D01*
X89509048Y-121432295D02*
X89509048Y-120632295D01*
X89509048Y-120632295D02*
X89699524Y-120632295D01*
X89699524Y-120632295D02*
X89813810Y-120670390D01*
X89813810Y-120670390D02*
X89890000Y-120746580D01*
X89890000Y-120746580D02*
X89928095Y-120822771D01*
X89928095Y-120822771D02*
X89966191Y-120975152D01*
X89966191Y-120975152D02*
X89966191Y-121089438D01*
X89966191Y-121089438D02*
X89928095Y-121241819D01*
X89928095Y-121241819D02*
X89890000Y-121318009D01*
X89890000Y-121318009D02*
X89813810Y-121394200D01*
X89813810Y-121394200D02*
X89699524Y-121432295D01*
X89699524Y-121432295D02*
X89509048Y-121432295D01*
X90309048Y-121432295D02*
X90309048Y-120632295D01*
X90842381Y-120632295D02*
X90994762Y-120632295D01*
X90994762Y-120632295D02*
X91070952Y-120670390D01*
X91070952Y-120670390D02*
X91147143Y-120746580D01*
X91147143Y-120746580D02*
X91185238Y-120898961D01*
X91185238Y-120898961D02*
X91185238Y-121165628D01*
X91185238Y-121165628D02*
X91147143Y-121318009D01*
X91147143Y-121318009D02*
X91070952Y-121394200D01*
X91070952Y-121394200D02*
X90994762Y-121432295D01*
X90994762Y-121432295D02*
X90842381Y-121432295D01*
X90842381Y-121432295D02*
X90766190Y-121394200D01*
X90766190Y-121394200D02*
X90690000Y-121318009D01*
X90690000Y-121318009D02*
X90651904Y-121165628D01*
X90651904Y-121165628D02*
X90651904Y-120898961D01*
X90651904Y-120898961D02*
X90690000Y-120746580D01*
X90690000Y-120746580D02*
X90766190Y-120670390D01*
X90766190Y-120670390D02*
X90842381Y-120632295D01*
X70403372Y-86101494D02*
X70322560Y-86128431D01*
X70322560Y-86128431D02*
X70241748Y-86209243D01*
X70241748Y-86209243D02*
X70187873Y-86316993D01*
X70187873Y-86316993D02*
X70187873Y-86424742D01*
X70187873Y-86424742D02*
X70214810Y-86505555D01*
X70214810Y-86505555D02*
X70295623Y-86640242D01*
X70295623Y-86640242D02*
X70376435Y-86721054D01*
X70376435Y-86721054D02*
X70511122Y-86801866D01*
X70511122Y-86801866D02*
X70591934Y-86828803D01*
X70591934Y-86828803D02*
X70699684Y-86828803D01*
X70699684Y-86828803D02*
X70807433Y-86774929D01*
X70807433Y-86774929D02*
X70861308Y-86721054D01*
X70861308Y-86721054D02*
X70915183Y-86613304D01*
X70915183Y-86613304D02*
X70915183Y-86559429D01*
X70915183Y-86559429D02*
X70726621Y-86370868D01*
X70726621Y-86370868D02*
X70618871Y-86478617D01*
X71211494Y-86370868D02*
X70645809Y-85805182D01*
X70645809Y-85805182D02*
X70861308Y-85589683D01*
X70861308Y-85589683D02*
X70942120Y-85562746D01*
X70942120Y-85562746D02*
X70995995Y-85562746D01*
X70995995Y-85562746D02*
X71076807Y-85589683D01*
X71076807Y-85589683D02*
X71157619Y-85670495D01*
X71157619Y-85670495D02*
X71184557Y-85751307D01*
X71184557Y-85751307D02*
X71184557Y-85805182D01*
X71184557Y-85805182D02*
X71157619Y-85885994D01*
X71157619Y-85885994D02*
X70942120Y-86101494D01*
X71480868Y-84970123D02*
X71211494Y-85239497D01*
X71211494Y-85239497D02*
X71453931Y-85535808D01*
X71453931Y-85535808D02*
X71453931Y-85481933D01*
X71453931Y-85481933D02*
X71480868Y-85401121D01*
X71480868Y-85401121D02*
X71615555Y-85266434D01*
X71615555Y-85266434D02*
X71696367Y-85239497D01*
X71696367Y-85239497D02*
X71750242Y-85239497D01*
X71750242Y-85239497D02*
X71831054Y-85266434D01*
X71831054Y-85266434D02*
X71965741Y-85401121D01*
X71965741Y-85401121D02*
X71992679Y-85481933D01*
X71992679Y-85481933D02*
X71992679Y-85535808D01*
X71992679Y-85535808D02*
X71965741Y-85616620D01*
X71965741Y-85616620D02*
X71831054Y-85751307D01*
X71831054Y-85751307D02*
X71750242Y-85778245D01*
X71750242Y-85778245D02*
X71696367Y-85778245D01*
X70403372Y-70861494D02*
X70322560Y-70888431D01*
X70322560Y-70888431D02*
X70241748Y-70969243D01*
X70241748Y-70969243D02*
X70187873Y-71076993D01*
X70187873Y-71076993D02*
X70187873Y-71184742D01*
X70187873Y-71184742D02*
X70214810Y-71265555D01*
X70214810Y-71265555D02*
X70295623Y-71400242D01*
X70295623Y-71400242D02*
X70376435Y-71481054D01*
X70376435Y-71481054D02*
X70511122Y-71561866D01*
X70511122Y-71561866D02*
X70591934Y-71588803D01*
X70591934Y-71588803D02*
X70699684Y-71588803D01*
X70699684Y-71588803D02*
X70807433Y-71534929D01*
X70807433Y-71534929D02*
X70861308Y-71481054D01*
X70861308Y-71481054D02*
X70915183Y-71373304D01*
X70915183Y-71373304D02*
X70915183Y-71319429D01*
X70915183Y-71319429D02*
X70726621Y-71130868D01*
X70726621Y-71130868D02*
X70618871Y-71238617D01*
X71211494Y-71130868D02*
X70645809Y-70565182D01*
X70645809Y-70565182D02*
X70861308Y-70349683D01*
X70861308Y-70349683D02*
X70942120Y-70322746D01*
X70942120Y-70322746D02*
X70995995Y-70322746D01*
X70995995Y-70322746D02*
X71076807Y-70349683D01*
X71076807Y-70349683D02*
X71157619Y-70430495D01*
X71157619Y-70430495D02*
X71184557Y-70511307D01*
X71184557Y-70511307D02*
X71184557Y-70565182D01*
X71184557Y-70565182D02*
X71157619Y-70645994D01*
X71157619Y-70645994D02*
X70942120Y-70861494D01*
X71319244Y-69891747D02*
X71373119Y-69837872D01*
X71373119Y-69837872D02*
X71453931Y-69810935D01*
X71453931Y-69810935D02*
X71507806Y-69810935D01*
X71507806Y-69810935D02*
X71588618Y-69837872D01*
X71588618Y-69837872D02*
X71723305Y-69918685D01*
X71723305Y-69918685D02*
X71857992Y-70053372D01*
X71857992Y-70053372D02*
X71938804Y-70188059D01*
X71938804Y-70188059D02*
X71965741Y-70268871D01*
X71965741Y-70268871D02*
X71965741Y-70322746D01*
X71965741Y-70322746D02*
X71938804Y-70403558D01*
X71938804Y-70403558D02*
X71884929Y-70457433D01*
X71884929Y-70457433D02*
X71804117Y-70484370D01*
X71804117Y-70484370D02*
X71750242Y-70484370D01*
X71750242Y-70484370D02*
X71669430Y-70457433D01*
X71669430Y-70457433D02*
X71534743Y-70376620D01*
X71534743Y-70376620D02*
X71400056Y-70241933D01*
X71400056Y-70241933D02*
X71319244Y-70107246D01*
X71319244Y-70107246D02*
X71292306Y-70026434D01*
X71292306Y-70026434D02*
X71292306Y-69972559D01*
X71292306Y-69972559D02*
X71319244Y-69891747D01*
X70403372Y-81021494D02*
X70322560Y-81048431D01*
X70322560Y-81048431D02*
X70241748Y-81129243D01*
X70241748Y-81129243D02*
X70187873Y-81236993D01*
X70187873Y-81236993D02*
X70187873Y-81344742D01*
X70187873Y-81344742D02*
X70214810Y-81425555D01*
X70214810Y-81425555D02*
X70295623Y-81560242D01*
X70295623Y-81560242D02*
X70376435Y-81641054D01*
X70376435Y-81641054D02*
X70511122Y-81721866D01*
X70511122Y-81721866D02*
X70591934Y-81748803D01*
X70591934Y-81748803D02*
X70699684Y-81748803D01*
X70699684Y-81748803D02*
X70807433Y-81694929D01*
X70807433Y-81694929D02*
X70861308Y-81641054D01*
X70861308Y-81641054D02*
X70915183Y-81533304D01*
X70915183Y-81533304D02*
X70915183Y-81479429D01*
X70915183Y-81479429D02*
X70726621Y-81290868D01*
X70726621Y-81290868D02*
X70618871Y-81398617D01*
X71211494Y-81290868D02*
X70645809Y-80725182D01*
X70645809Y-80725182D02*
X70861308Y-80509683D01*
X70861308Y-80509683D02*
X70942120Y-80482746D01*
X70942120Y-80482746D02*
X70995995Y-80482746D01*
X70995995Y-80482746D02*
X71076807Y-80509683D01*
X71076807Y-80509683D02*
X71157619Y-80590495D01*
X71157619Y-80590495D02*
X71184557Y-80671307D01*
X71184557Y-80671307D02*
X71184557Y-80725182D01*
X71184557Y-80725182D02*
X71157619Y-80805994D01*
X71157619Y-80805994D02*
X70942120Y-81021494D01*
X71157619Y-80213372D02*
X71507806Y-79863185D01*
X71507806Y-79863185D02*
X71534743Y-80267246D01*
X71534743Y-80267246D02*
X71615555Y-80186434D01*
X71615555Y-80186434D02*
X71696367Y-80159497D01*
X71696367Y-80159497D02*
X71750242Y-80159497D01*
X71750242Y-80159497D02*
X71831054Y-80186434D01*
X71831054Y-80186434D02*
X71965741Y-80321121D01*
X71965741Y-80321121D02*
X71992679Y-80401933D01*
X71992679Y-80401933D02*
X71992679Y-80455808D01*
X71992679Y-80455808D02*
X71965741Y-80536620D01*
X71965741Y-80536620D02*
X71804117Y-80698245D01*
X71804117Y-80698245D02*
X71723305Y-80725182D01*
X71723305Y-80725182D02*
X71669430Y-80725182D01*
X70376435Y-114068431D02*
X70295623Y-114095368D01*
X70295623Y-114095368D02*
X70214811Y-114176180D01*
X70214811Y-114176180D02*
X70160936Y-114283930D01*
X70160936Y-114283930D02*
X70160936Y-114391680D01*
X70160936Y-114391680D02*
X70187873Y-114472492D01*
X70187873Y-114472492D02*
X70268685Y-114607179D01*
X70268685Y-114607179D02*
X70349498Y-114687991D01*
X70349498Y-114687991D02*
X70484185Y-114768803D01*
X70484185Y-114768803D02*
X70564997Y-114795741D01*
X70564997Y-114795741D02*
X70672746Y-114795741D01*
X70672746Y-114795741D02*
X70780496Y-114741866D01*
X70780496Y-114741866D02*
X70834371Y-114687991D01*
X70834371Y-114687991D02*
X70888246Y-114580241D01*
X70888246Y-114580241D02*
X70888246Y-114526367D01*
X70888246Y-114526367D02*
X70699684Y-114337805D01*
X70699684Y-114337805D02*
X70591934Y-114445554D01*
X71184557Y-114337805D02*
X70618872Y-113772119D01*
X70618872Y-113772119D02*
X71507806Y-114014556D01*
X71507806Y-114014556D02*
X70942120Y-113448871D01*
X71777180Y-113745182D02*
X71211494Y-113179497D01*
X71211494Y-113179497D02*
X71346181Y-113044810D01*
X71346181Y-113044810D02*
X71453931Y-112990935D01*
X71453931Y-112990935D02*
X71561680Y-112990935D01*
X71561680Y-112990935D02*
X71642493Y-113017872D01*
X71642493Y-113017872D02*
X71777180Y-113098685D01*
X71777180Y-113098685D02*
X71857992Y-113179497D01*
X71857992Y-113179497D02*
X71938804Y-113314184D01*
X71938804Y-113314184D02*
X71965741Y-113394996D01*
X71965741Y-113394996D02*
X71965741Y-113502746D01*
X71965741Y-113502746D02*
X71911867Y-113610495D01*
X71911867Y-113610495D02*
X71777180Y-113745182D01*
X70376435Y-75968431D02*
X70295623Y-75995368D01*
X70295623Y-75995368D02*
X70214811Y-76076180D01*
X70214811Y-76076180D02*
X70160936Y-76183930D01*
X70160936Y-76183930D02*
X70160936Y-76291680D01*
X70160936Y-76291680D02*
X70187873Y-76372492D01*
X70187873Y-76372492D02*
X70268685Y-76507179D01*
X70268685Y-76507179D02*
X70349498Y-76587991D01*
X70349498Y-76587991D02*
X70484185Y-76668803D01*
X70484185Y-76668803D02*
X70564997Y-76695741D01*
X70564997Y-76695741D02*
X70672746Y-76695741D01*
X70672746Y-76695741D02*
X70780496Y-76641866D01*
X70780496Y-76641866D02*
X70834371Y-76587991D01*
X70834371Y-76587991D02*
X70888246Y-76480241D01*
X70888246Y-76480241D02*
X70888246Y-76426367D01*
X70888246Y-76426367D02*
X70699684Y-76237805D01*
X70699684Y-76237805D02*
X70591934Y-76345554D01*
X71184557Y-76237805D02*
X70618872Y-75672119D01*
X70618872Y-75672119D02*
X71507806Y-75914556D01*
X71507806Y-75914556D02*
X70942120Y-75348871D01*
X71777180Y-75645182D02*
X71211494Y-75079497D01*
X71211494Y-75079497D02*
X71346181Y-74944810D01*
X71346181Y-74944810D02*
X71453931Y-74890935D01*
X71453931Y-74890935D02*
X71561680Y-74890935D01*
X71561680Y-74890935D02*
X71642493Y-74917872D01*
X71642493Y-74917872D02*
X71777180Y-74998685D01*
X71777180Y-74998685D02*
X71857992Y-75079497D01*
X71857992Y-75079497D02*
X71938804Y-75214184D01*
X71938804Y-75214184D02*
X71965741Y-75294996D01*
X71965741Y-75294996D02*
X71965741Y-75402746D01*
X71965741Y-75402746D02*
X71911867Y-75510495D01*
X71911867Y-75510495D02*
X71777180Y-75645182D01*
X95987998Y-106690868D02*
X95907185Y-106717805D01*
X95907185Y-106717805D02*
X95826373Y-106798618D01*
X95826373Y-106798618D02*
X95772498Y-106906367D01*
X95772498Y-106906367D02*
X95772498Y-107014117D01*
X95772498Y-107014117D02*
X95799436Y-107094929D01*
X95799436Y-107094929D02*
X95880248Y-107229616D01*
X95880248Y-107229616D02*
X95961060Y-107310428D01*
X95961060Y-107310428D02*
X96095747Y-107391241D01*
X96095747Y-107391241D02*
X96176560Y-107418178D01*
X96176560Y-107418178D02*
X96284309Y-107418178D01*
X96284309Y-107418178D02*
X96392059Y-107364303D01*
X96392059Y-107364303D02*
X96445934Y-107310428D01*
X96445934Y-107310428D02*
X96499808Y-107202679D01*
X96499808Y-107202679D02*
X96499808Y-107148804D01*
X96499808Y-107148804D02*
X96311247Y-106960242D01*
X96311247Y-106960242D02*
X96203497Y-107067992D01*
X96796120Y-106960242D02*
X96230434Y-106394557D01*
X96230434Y-106394557D02*
X96445934Y-106179057D01*
X96445934Y-106179057D02*
X96526746Y-106152120D01*
X96526746Y-106152120D02*
X96580621Y-106152120D01*
X96580621Y-106152120D02*
X96661433Y-106179057D01*
X96661433Y-106179057D02*
X96742245Y-106259870D01*
X96742245Y-106259870D02*
X96769182Y-106340682D01*
X96769182Y-106340682D02*
X96769182Y-106394557D01*
X96769182Y-106394557D02*
X96742245Y-106475369D01*
X96742245Y-106475369D02*
X96526746Y-106690868D01*
X96823057Y-105909683D02*
X96823057Y-105855809D01*
X96823057Y-105855809D02*
X96849995Y-105774996D01*
X96849995Y-105774996D02*
X96984682Y-105640309D01*
X96984682Y-105640309D02*
X97065494Y-105613372D01*
X97065494Y-105613372D02*
X97119369Y-105613372D01*
X97119369Y-105613372D02*
X97200181Y-105640309D01*
X97200181Y-105640309D02*
X97254056Y-105694184D01*
X97254056Y-105694184D02*
X97307930Y-105801934D01*
X97307930Y-105801934D02*
X97307930Y-106448431D01*
X97307930Y-106448431D02*
X97658117Y-106098245D01*
X97442618Y-105182373D02*
X97496492Y-105128499D01*
X97496492Y-105128499D02*
X97577305Y-105101561D01*
X97577305Y-105101561D02*
X97631179Y-105101561D01*
X97631179Y-105101561D02*
X97711992Y-105128499D01*
X97711992Y-105128499D02*
X97846679Y-105209311D01*
X97846679Y-105209311D02*
X97981366Y-105343998D01*
X97981366Y-105343998D02*
X98062178Y-105478685D01*
X98062178Y-105478685D02*
X98089115Y-105559497D01*
X98089115Y-105559497D02*
X98089115Y-105613372D01*
X98089115Y-105613372D02*
X98062178Y-105694184D01*
X98062178Y-105694184D02*
X98008303Y-105748059D01*
X98008303Y-105748059D02*
X97927491Y-105774996D01*
X97927491Y-105774996D02*
X97873616Y-105774996D01*
X97873616Y-105774996D02*
X97792804Y-105748059D01*
X97792804Y-105748059D02*
X97658117Y-105667247D01*
X97658117Y-105667247D02*
X97523430Y-105532560D01*
X97523430Y-105532560D02*
X97442618Y-105397873D01*
X97442618Y-105397873D02*
X97415680Y-105317060D01*
X97415680Y-105317060D02*
X97415680Y-105263186D01*
X97415680Y-105263186D02*
X97442618Y-105182373D01*
X95987998Y-109230868D02*
X95907185Y-109257805D01*
X95907185Y-109257805D02*
X95826373Y-109338618D01*
X95826373Y-109338618D02*
X95772498Y-109446367D01*
X95772498Y-109446367D02*
X95772498Y-109554117D01*
X95772498Y-109554117D02*
X95799436Y-109634929D01*
X95799436Y-109634929D02*
X95880248Y-109769616D01*
X95880248Y-109769616D02*
X95961060Y-109850428D01*
X95961060Y-109850428D02*
X96095747Y-109931241D01*
X96095747Y-109931241D02*
X96176560Y-109958178D01*
X96176560Y-109958178D02*
X96284309Y-109958178D01*
X96284309Y-109958178D02*
X96392059Y-109904303D01*
X96392059Y-109904303D02*
X96445934Y-109850428D01*
X96445934Y-109850428D02*
X96499808Y-109742679D01*
X96499808Y-109742679D02*
X96499808Y-109688804D01*
X96499808Y-109688804D02*
X96311247Y-109500242D01*
X96311247Y-109500242D02*
X96203497Y-109607992D01*
X96796120Y-109500242D02*
X96230434Y-108934557D01*
X96230434Y-108934557D02*
X96445934Y-108719057D01*
X96445934Y-108719057D02*
X96526746Y-108692120D01*
X96526746Y-108692120D02*
X96580621Y-108692120D01*
X96580621Y-108692120D02*
X96661433Y-108719057D01*
X96661433Y-108719057D02*
X96742245Y-108799870D01*
X96742245Y-108799870D02*
X96769182Y-108880682D01*
X96769182Y-108880682D02*
X96769182Y-108934557D01*
X96769182Y-108934557D02*
X96742245Y-109015369D01*
X96742245Y-109015369D02*
X96526746Y-109230868D01*
X97658117Y-108638245D02*
X97334868Y-108961494D01*
X97496492Y-108799870D02*
X96930807Y-108234184D01*
X96930807Y-108234184D02*
X96957744Y-108368871D01*
X96957744Y-108368871D02*
X96957744Y-108476621D01*
X96957744Y-108476621D02*
X96930807Y-108557433D01*
X97927491Y-108368871D02*
X98035240Y-108261121D01*
X98035240Y-108261121D02*
X98062178Y-108180309D01*
X98062178Y-108180309D02*
X98062178Y-108126434D01*
X98062178Y-108126434D02*
X98035240Y-107991747D01*
X98035240Y-107991747D02*
X97954428Y-107857060D01*
X97954428Y-107857060D02*
X97738929Y-107641561D01*
X97738929Y-107641561D02*
X97658117Y-107614624D01*
X97658117Y-107614624D02*
X97604242Y-107614624D01*
X97604242Y-107614624D02*
X97523430Y-107641561D01*
X97523430Y-107641561D02*
X97415680Y-107749311D01*
X97415680Y-107749311D02*
X97388743Y-107830123D01*
X97388743Y-107830123D02*
X97388743Y-107883998D01*
X97388743Y-107883998D02*
X97415680Y-107964810D01*
X97415680Y-107964810D02*
X97550367Y-108099497D01*
X97550367Y-108099497D02*
X97631179Y-108126434D01*
X97631179Y-108126434D02*
X97685054Y-108126434D01*
X97685054Y-108126434D02*
X97765866Y-108099497D01*
X97765866Y-108099497D02*
X97873616Y-107991747D01*
X97873616Y-107991747D02*
X97900553Y-107910935D01*
X97900553Y-107910935D02*
X97900553Y-107857060D01*
X97900553Y-107857060D02*
X97873616Y-107776248D01*
X70303372Y-78481494D02*
X70222560Y-78508431D01*
X70222560Y-78508431D02*
X70141748Y-78589243D01*
X70141748Y-78589243D02*
X70087873Y-78696993D01*
X70087873Y-78696993D02*
X70087873Y-78804742D01*
X70087873Y-78804742D02*
X70114810Y-78885555D01*
X70114810Y-78885555D02*
X70195623Y-79020242D01*
X70195623Y-79020242D02*
X70276435Y-79101054D01*
X70276435Y-79101054D02*
X70411122Y-79181866D01*
X70411122Y-79181866D02*
X70491934Y-79208803D01*
X70491934Y-79208803D02*
X70599684Y-79208803D01*
X70599684Y-79208803D02*
X70707433Y-79154929D01*
X70707433Y-79154929D02*
X70761308Y-79101054D01*
X70761308Y-79101054D02*
X70815183Y-78993304D01*
X70815183Y-78993304D02*
X70815183Y-78939429D01*
X70815183Y-78939429D02*
X70626621Y-78750868D01*
X70626621Y-78750868D02*
X70518871Y-78858617D01*
X71111494Y-78750868D02*
X70545809Y-78185182D01*
X70545809Y-78185182D02*
X70761308Y-77969683D01*
X70761308Y-77969683D02*
X70842120Y-77942746D01*
X70842120Y-77942746D02*
X70895995Y-77942746D01*
X70895995Y-77942746D02*
X70976807Y-77969683D01*
X70976807Y-77969683D02*
X71057619Y-78050495D01*
X71057619Y-78050495D02*
X71084557Y-78131307D01*
X71084557Y-78131307D02*
X71084557Y-78185182D01*
X71084557Y-78185182D02*
X71057619Y-78265994D01*
X71057619Y-78265994D02*
X70842120Y-78481494D01*
X71138432Y-77700309D02*
X71138432Y-77646434D01*
X71138432Y-77646434D02*
X71165369Y-77565622D01*
X71165369Y-77565622D02*
X71300056Y-77430935D01*
X71300056Y-77430935D02*
X71380868Y-77403998D01*
X71380868Y-77403998D02*
X71434743Y-77403998D01*
X71434743Y-77403998D02*
X71515555Y-77430935D01*
X71515555Y-77430935D02*
X71569430Y-77484810D01*
X71569430Y-77484810D02*
X71623305Y-77592559D01*
X71623305Y-77592559D02*
X71623305Y-78239057D01*
X71623305Y-78239057D02*
X71973491Y-77888871D01*
X95987998Y-111770868D02*
X95907185Y-111797805D01*
X95907185Y-111797805D02*
X95826373Y-111878618D01*
X95826373Y-111878618D02*
X95772498Y-111986367D01*
X95772498Y-111986367D02*
X95772498Y-112094117D01*
X95772498Y-112094117D02*
X95799436Y-112174929D01*
X95799436Y-112174929D02*
X95880248Y-112309616D01*
X95880248Y-112309616D02*
X95961060Y-112390428D01*
X95961060Y-112390428D02*
X96095747Y-112471241D01*
X96095747Y-112471241D02*
X96176560Y-112498178D01*
X96176560Y-112498178D02*
X96284309Y-112498178D01*
X96284309Y-112498178D02*
X96392059Y-112444303D01*
X96392059Y-112444303D02*
X96445934Y-112390428D01*
X96445934Y-112390428D02*
X96499808Y-112282679D01*
X96499808Y-112282679D02*
X96499808Y-112228804D01*
X96499808Y-112228804D02*
X96311247Y-112040242D01*
X96311247Y-112040242D02*
X96203497Y-112147992D01*
X96796120Y-112040242D02*
X96230434Y-111474557D01*
X96230434Y-111474557D02*
X96445934Y-111259057D01*
X96445934Y-111259057D02*
X96526746Y-111232120D01*
X96526746Y-111232120D02*
X96580621Y-111232120D01*
X96580621Y-111232120D02*
X96661433Y-111259057D01*
X96661433Y-111259057D02*
X96742245Y-111339870D01*
X96742245Y-111339870D02*
X96769182Y-111420682D01*
X96769182Y-111420682D02*
X96769182Y-111474557D01*
X96769182Y-111474557D02*
X96742245Y-111555369D01*
X96742245Y-111555369D02*
X96526746Y-111770868D01*
X97658117Y-111178245D02*
X97334868Y-111501494D01*
X97496492Y-111339870D02*
X96930807Y-110774184D01*
X96930807Y-110774184D02*
X96957744Y-110908871D01*
X96957744Y-110908871D02*
X96957744Y-111016621D01*
X96957744Y-111016621D02*
X96930807Y-111097433D01*
X97658117Y-110531747D02*
X97577305Y-110558685D01*
X97577305Y-110558685D02*
X97523430Y-110558685D01*
X97523430Y-110558685D02*
X97442618Y-110531747D01*
X97442618Y-110531747D02*
X97415680Y-110504810D01*
X97415680Y-110504810D02*
X97388743Y-110423998D01*
X97388743Y-110423998D02*
X97388743Y-110370123D01*
X97388743Y-110370123D02*
X97415680Y-110289311D01*
X97415680Y-110289311D02*
X97523430Y-110181561D01*
X97523430Y-110181561D02*
X97604242Y-110154624D01*
X97604242Y-110154624D02*
X97658117Y-110154624D01*
X97658117Y-110154624D02*
X97738929Y-110181561D01*
X97738929Y-110181561D02*
X97765866Y-110208499D01*
X97765866Y-110208499D02*
X97792804Y-110289311D01*
X97792804Y-110289311D02*
X97792804Y-110343186D01*
X97792804Y-110343186D02*
X97765866Y-110423998D01*
X97765866Y-110423998D02*
X97658117Y-110531747D01*
X97658117Y-110531747D02*
X97631179Y-110612560D01*
X97631179Y-110612560D02*
X97631179Y-110666434D01*
X97631179Y-110666434D02*
X97658117Y-110747247D01*
X97658117Y-110747247D02*
X97765866Y-110854996D01*
X97765866Y-110854996D02*
X97846679Y-110881934D01*
X97846679Y-110881934D02*
X97900553Y-110881934D01*
X97900553Y-110881934D02*
X97981366Y-110854996D01*
X97981366Y-110854996D02*
X98089115Y-110747247D01*
X98089115Y-110747247D02*
X98116053Y-110666434D01*
X98116053Y-110666434D02*
X98116053Y-110612560D01*
X98116053Y-110612560D02*
X98089115Y-110531747D01*
X98089115Y-110531747D02*
X97981366Y-110423998D01*
X97981366Y-110423998D02*
X97900553Y-110397060D01*
X97900553Y-110397060D02*
X97846679Y-110397060D01*
X97846679Y-110397060D02*
X97765866Y-110423998D01*
X70403372Y-91181494D02*
X70322560Y-91208431D01*
X70322560Y-91208431D02*
X70241748Y-91289243D01*
X70241748Y-91289243D02*
X70187873Y-91396993D01*
X70187873Y-91396993D02*
X70187873Y-91504742D01*
X70187873Y-91504742D02*
X70214810Y-91585555D01*
X70214810Y-91585555D02*
X70295623Y-91720242D01*
X70295623Y-91720242D02*
X70376435Y-91801054D01*
X70376435Y-91801054D02*
X70511122Y-91881866D01*
X70511122Y-91881866D02*
X70591934Y-91908803D01*
X70591934Y-91908803D02*
X70699684Y-91908803D01*
X70699684Y-91908803D02*
X70807433Y-91854929D01*
X70807433Y-91854929D02*
X70861308Y-91801054D01*
X70861308Y-91801054D02*
X70915183Y-91693304D01*
X70915183Y-91693304D02*
X70915183Y-91639429D01*
X70915183Y-91639429D02*
X70726621Y-91450868D01*
X70726621Y-91450868D02*
X70618871Y-91558617D01*
X71211494Y-91450868D02*
X70645809Y-90885182D01*
X70645809Y-90885182D02*
X70861308Y-90669683D01*
X70861308Y-90669683D02*
X70942120Y-90642746D01*
X70942120Y-90642746D02*
X70995995Y-90642746D01*
X70995995Y-90642746D02*
X71076807Y-90669683D01*
X71076807Y-90669683D02*
X71157619Y-90750495D01*
X71157619Y-90750495D02*
X71184557Y-90831307D01*
X71184557Y-90831307D02*
X71184557Y-90885182D01*
X71184557Y-90885182D02*
X71157619Y-90965994D01*
X71157619Y-90965994D02*
X70942120Y-91181494D01*
X71453931Y-90077060D02*
X71346181Y-90184810D01*
X71346181Y-90184810D02*
X71319244Y-90265622D01*
X71319244Y-90265622D02*
X71319244Y-90319497D01*
X71319244Y-90319497D02*
X71346181Y-90454184D01*
X71346181Y-90454184D02*
X71426993Y-90588871D01*
X71426993Y-90588871D02*
X71642493Y-90804370D01*
X71642493Y-90804370D02*
X71723305Y-90831307D01*
X71723305Y-90831307D02*
X71777180Y-90831307D01*
X71777180Y-90831307D02*
X71857992Y-90804370D01*
X71857992Y-90804370D02*
X71965741Y-90696620D01*
X71965741Y-90696620D02*
X71992679Y-90615808D01*
X71992679Y-90615808D02*
X71992679Y-90561933D01*
X71992679Y-90561933D02*
X71965741Y-90481121D01*
X71965741Y-90481121D02*
X71831054Y-90346434D01*
X71831054Y-90346434D02*
X71750242Y-90319497D01*
X71750242Y-90319497D02*
X71696367Y-90319497D01*
X71696367Y-90319497D02*
X71615555Y-90346434D01*
X71615555Y-90346434D02*
X71507806Y-90454184D01*
X71507806Y-90454184D02*
X71480868Y-90534996D01*
X71480868Y-90534996D02*
X71480868Y-90588871D01*
X71480868Y-90588871D02*
X71507806Y-90669683D01*
X95987998Y-104160868D02*
X95907185Y-104187805D01*
X95907185Y-104187805D02*
X95826373Y-104268618D01*
X95826373Y-104268618D02*
X95772498Y-104376367D01*
X95772498Y-104376367D02*
X95772498Y-104484117D01*
X95772498Y-104484117D02*
X95799436Y-104564929D01*
X95799436Y-104564929D02*
X95880248Y-104699616D01*
X95880248Y-104699616D02*
X95961060Y-104780428D01*
X95961060Y-104780428D02*
X96095747Y-104861241D01*
X96095747Y-104861241D02*
X96176560Y-104888178D01*
X96176560Y-104888178D02*
X96284309Y-104888178D01*
X96284309Y-104888178D02*
X96392059Y-104834303D01*
X96392059Y-104834303D02*
X96445934Y-104780428D01*
X96445934Y-104780428D02*
X96499808Y-104672679D01*
X96499808Y-104672679D02*
X96499808Y-104618804D01*
X96499808Y-104618804D02*
X96311247Y-104430242D01*
X96311247Y-104430242D02*
X96203497Y-104537992D01*
X96796120Y-104430242D02*
X96230434Y-103864557D01*
X96230434Y-103864557D02*
X96445934Y-103649057D01*
X96445934Y-103649057D02*
X96526746Y-103622120D01*
X96526746Y-103622120D02*
X96580621Y-103622120D01*
X96580621Y-103622120D02*
X96661433Y-103649057D01*
X96661433Y-103649057D02*
X96742245Y-103729870D01*
X96742245Y-103729870D02*
X96769182Y-103810682D01*
X96769182Y-103810682D02*
X96769182Y-103864557D01*
X96769182Y-103864557D02*
X96742245Y-103945369D01*
X96742245Y-103945369D02*
X96526746Y-104160868D01*
X96823057Y-103379683D02*
X96823057Y-103325809D01*
X96823057Y-103325809D02*
X96849995Y-103244996D01*
X96849995Y-103244996D02*
X96984682Y-103110309D01*
X96984682Y-103110309D02*
X97065494Y-103083372D01*
X97065494Y-103083372D02*
X97119369Y-103083372D01*
X97119369Y-103083372D02*
X97200181Y-103110309D01*
X97200181Y-103110309D02*
X97254056Y-103164184D01*
X97254056Y-103164184D02*
X97307930Y-103271934D01*
X97307930Y-103271934D02*
X97307930Y-103918431D01*
X97307930Y-103918431D02*
X97658117Y-103568245D01*
X98196865Y-103029497D02*
X97873616Y-103352746D01*
X98035240Y-103191121D02*
X97469555Y-102625436D01*
X97469555Y-102625436D02*
X97496492Y-102760123D01*
X97496492Y-102760123D02*
X97496492Y-102867873D01*
X97496492Y-102867873D02*
X97469555Y-102948685D01*
X95987998Y-99070868D02*
X95907185Y-99097805D01*
X95907185Y-99097805D02*
X95826373Y-99178618D01*
X95826373Y-99178618D02*
X95772498Y-99286367D01*
X95772498Y-99286367D02*
X95772498Y-99394117D01*
X95772498Y-99394117D02*
X95799436Y-99474929D01*
X95799436Y-99474929D02*
X95880248Y-99609616D01*
X95880248Y-99609616D02*
X95961060Y-99690428D01*
X95961060Y-99690428D02*
X96095747Y-99771241D01*
X96095747Y-99771241D02*
X96176560Y-99798178D01*
X96176560Y-99798178D02*
X96284309Y-99798178D01*
X96284309Y-99798178D02*
X96392059Y-99744303D01*
X96392059Y-99744303D02*
X96445934Y-99690428D01*
X96445934Y-99690428D02*
X96499808Y-99582679D01*
X96499808Y-99582679D02*
X96499808Y-99528804D01*
X96499808Y-99528804D02*
X96311247Y-99340242D01*
X96311247Y-99340242D02*
X96203497Y-99447992D01*
X96796120Y-99340242D02*
X96230434Y-98774557D01*
X96230434Y-98774557D02*
X96445934Y-98559057D01*
X96445934Y-98559057D02*
X96526746Y-98532120D01*
X96526746Y-98532120D02*
X96580621Y-98532120D01*
X96580621Y-98532120D02*
X96661433Y-98559057D01*
X96661433Y-98559057D02*
X96742245Y-98639870D01*
X96742245Y-98639870D02*
X96769182Y-98720682D01*
X96769182Y-98720682D02*
X96769182Y-98774557D01*
X96769182Y-98774557D02*
X96742245Y-98855369D01*
X96742245Y-98855369D02*
X96526746Y-99070868D01*
X96823057Y-98289683D02*
X96823057Y-98235809D01*
X96823057Y-98235809D02*
X96849995Y-98154996D01*
X96849995Y-98154996D02*
X96984682Y-98020309D01*
X96984682Y-98020309D02*
X97065494Y-97993372D01*
X97065494Y-97993372D02*
X97119369Y-97993372D01*
X97119369Y-97993372D02*
X97200181Y-98020309D01*
X97200181Y-98020309D02*
X97254056Y-98074184D01*
X97254056Y-98074184D02*
X97307930Y-98181934D01*
X97307930Y-98181934D02*
X97307930Y-98828431D01*
X97307930Y-98828431D02*
X97658117Y-98478245D01*
X97361805Y-97750935D02*
X97361805Y-97697060D01*
X97361805Y-97697060D02*
X97388743Y-97616248D01*
X97388743Y-97616248D02*
X97523430Y-97481561D01*
X97523430Y-97481561D02*
X97604242Y-97454624D01*
X97604242Y-97454624D02*
X97658117Y-97454624D01*
X97658117Y-97454624D02*
X97738929Y-97481561D01*
X97738929Y-97481561D02*
X97792804Y-97535436D01*
X97792804Y-97535436D02*
X97846679Y-97643186D01*
X97846679Y-97643186D02*
X97846679Y-98289683D01*
X97846679Y-98289683D02*
X98196865Y-97939497D01*
X70376435Y-101368431D02*
X70295623Y-101395368D01*
X70295623Y-101395368D02*
X70214811Y-101476180D01*
X70214811Y-101476180D02*
X70160936Y-101583930D01*
X70160936Y-101583930D02*
X70160936Y-101691680D01*
X70160936Y-101691680D02*
X70187873Y-101772492D01*
X70187873Y-101772492D02*
X70268685Y-101907179D01*
X70268685Y-101907179D02*
X70349498Y-101987991D01*
X70349498Y-101987991D02*
X70484185Y-102068803D01*
X70484185Y-102068803D02*
X70564997Y-102095741D01*
X70564997Y-102095741D02*
X70672746Y-102095741D01*
X70672746Y-102095741D02*
X70780496Y-102041866D01*
X70780496Y-102041866D02*
X70834371Y-101987991D01*
X70834371Y-101987991D02*
X70888246Y-101880241D01*
X70888246Y-101880241D02*
X70888246Y-101826367D01*
X70888246Y-101826367D02*
X70699684Y-101637805D01*
X70699684Y-101637805D02*
X70591934Y-101745554D01*
X71184557Y-101637805D02*
X70618872Y-101072119D01*
X70618872Y-101072119D02*
X71507806Y-101314556D01*
X71507806Y-101314556D02*
X70942120Y-100748871D01*
X71777180Y-101045182D02*
X71211494Y-100479497D01*
X71211494Y-100479497D02*
X71346181Y-100344810D01*
X71346181Y-100344810D02*
X71453931Y-100290935D01*
X71453931Y-100290935D02*
X71561680Y-100290935D01*
X71561680Y-100290935D02*
X71642493Y-100317872D01*
X71642493Y-100317872D02*
X71777180Y-100398685D01*
X71777180Y-100398685D02*
X71857992Y-100479497D01*
X71857992Y-100479497D02*
X71938804Y-100614184D01*
X71938804Y-100614184D02*
X71965741Y-100694996D01*
X71965741Y-100694996D02*
X71965741Y-100802746D01*
X71965741Y-100802746D02*
X71911867Y-100910495D01*
X71911867Y-100910495D02*
X71777180Y-101045182D01*
X69833998Y-116850868D02*
X69753185Y-116877805D01*
X69753185Y-116877805D02*
X69672373Y-116958618D01*
X69672373Y-116958618D02*
X69618498Y-117066367D01*
X69618498Y-117066367D02*
X69618498Y-117174117D01*
X69618498Y-117174117D02*
X69645436Y-117254929D01*
X69645436Y-117254929D02*
X69726248Y-117389616D01*
X69726248Y-117389616D02*
X69807060Y-117470428D01*
X69807060Y-117470428D02*
X69941747Y-117551241D01*
X69941747Y-117551241D02*
X70022560Y-117578178D01*
X70022560Y-117578178D02*
X70130309Y-117578178D01*
X70130309Y-117578178D02*
X70238059Y-117524303D01*
X70238059Y-117524303D02*
X70291934Y-117470428D01*
X70291934Y-117470428D02*
X70345808Y-117362679D01*
X70345808Y-117362679D02*
X70345808Y-117308804D01*
X70345808Y-117308804D02*
X70157247Y-117120242D01*
X70157247Y-117120242D02*
X70049497Y-117227992D01*
X70642120Y-117120242D02*
X70076434Y-116554557D01*
X70076434Y-116554557D02*
X70291934Y-116339057D01*
X70291934Y-116339057D02*
X70372746Y-116312120D01*
X70372746Y-116312120D02*
X70426621Y-116312120D01*
X70426621Y-116312120D02*
X70507433Y-116339057D01*
X70507433Y-116339057D02*
X70588245Y-116419870D01*
X70588245Y-116419870D02*
X70615182Y-116500682D01*
X70615182Y-116500682D02*
X70615182Y-116554557D01*
X70615182Y-116554557D02*
X70588245Y-116635369D01*
X70588245Y-116635369D02*
X70372746Y-116850868D01*
X71504117Y-116258245D02*
X71180868Y-116581494D01*
X71342492Y-116419870D02*
X70776807Y-115854184D01*
X70776807Y-115854184D02*
X70803744Y-115988871D01*
X70803744Y-115988871D02*
X70803744Y-116096621D01*
X70803744Y-116096621D02*
X70776807Y-116177433D01*
X71611866Y-115396248D02*
X71988990Y-115773372D01*
X71261680Y-115315436D02*
X71531054Y-115854184D01*
X71531054Y-115854184D02*
X71881240Y-115503998D01*
X95810749Y-73940242D02*
X96564996Y-74317366D01*
X96564996Y-74317366D02*
X96187873Y-73563118D01*
X96888245Y-73940242D02*
X96995995Y-73886367D01*
X96995995Y-73886367D02*
X97130682Y-73751680D01*
X97130682Y-73751680D02*
X97157619Y-73670868D01*
X97157619Y-73670868D02*
X97157619Y-73616993D01*
X97157619Y-73616993D02*
X97130682Y-73536181D01*
X97130682Y-73536181D02*
X97076807Y-73482306D01*
X97076807Y-73482306D02*
X96995995Y-73455369D01*
X96995995Y-73455369D02*
X96942120Y-73455369D01*
X96942120Y-73455369D02*
X96861308Y-73482306D01*
X96861308Y-73482306D02*
X96726621Y-73563118D01*
X96726621Y-73563118D02*
X96645808Y-73590056D01*
X96645808Y-73590056D02*
X96591934Y-73590056D01*
X96591934Y-73590056D02*
X96511121Y-73563118D01*
X96511121Y-73563118D02*
X96457247Y-73509244D01*
X96457247Y-73509244D02*
X96430309Y-73428431D01*
X96430309Y-73428431D02*
X96430309Y-73374557D01*
X96430309Y-73374557D02*
X96457247Y-73293744D01*
X96457247Y-73293744D02*
X96591934Y-73159057D01*
X96591934Y-73159057D02*
X96699683Y-73105183D01*
X97319244Y-73024370D02*
X97588618Y-73293744D01*
X96834370Y-72916621D02*
X97319244Y-73024370D01*
X97319244Y-73024370D02*
X97211494Y-72539497D01*
X97911866Y-72916621D02*
X98019616Y-72862746D01*
X98019616Y-72862746D02*
X98154303Y-72728059D01*
X98154303Y-72728059D02*
X98181240Y-72647247D01*
X98181240Y-72647247D02*
X98181240Y-72593372D01*
X98181240Y-72593372D02*
X98154303Y-72512560D01*
X98154303Y-72512560D02*
X98100428Y-72458685D01*
X98100428Y-72458685D02*
X98019616Y-72431748D01*
X98019616Y-72431748D02*
X97965741Y-72431748D01*
X97965741Y-72431748D02*
X97884929Y-72458685D01*
X97884929Y-72458685D02*
X97750242Y-72539497D01*
X97750242Y-72539497D02*
X97669430Y-72566435D01*
X97669430Y-72566435D02*
X97615555Y-72566435D01*
X97615555Y-72566435D02*
X97534743Y-72539497D01*
X97534743Y-72539497D02*
X97480868Y-72485622D01*
X97480868Y-72485622D02*
X97453930Y-72404810D01*
X97453930Y-72404810D02*
X97453930Y-72350935D01*
X97453930Y-72350935D02*
X97480868Y-72270123D01*
X97480868Y-72270123D02*
X97615555Y-72135436D01*
X97615555Y-72135436D02*
X97723304Y-72081561D01*
X69733998Y-109230868D02*
X69653185Y-109257805D01*
X69653185Y-109257805D02*
X69572373Y-109338618D01*
X69572373Y-109338618D02*
X69518498Y-109446367D01*
X69518498Y-109446367D02*
X69518498Y-109554117D01*
X69518498Y-109554117D02*
X69545436Y-109634929D01*
X69545436Y-109634929D02*
X69626248Y-109769616D01*
X69626248Y-109769616D02*
X69707060Y-109850428D01*
X69707060Y-109850428D02*
X69841747Y-109931241D01*
X69841747Y-109931241D02*
X69922560Y-109958178D01*
X69922560Y-109958178D02*
X70030309Y-109958178D01*
X70030309Y-109958178D02*
X70138059Y-109904303D01*
X70138059Y-109904303D02*
X70191934Y-109850428D01*
X70191934Y-109850428D02*
X70245808Y-109742679D01*
X70245808Y-109742679D02*
X70245808Y-109688804D01*
X70245808Y-109688804D02*
X70057247Y-109500242D01*
X70057247Y-109500242D02*
X69949497Y-109607992D01*
X70542120Y-109500242D02*
X69976434Y-108934557D01*
X69976434Y-108934557D02*
X70191934Y-108719057D01*
X70191934Y-108719057D02*
X70272746Y-108692120D01*
X70272746Y-108692120D02*
X70326621Y-108692120D01*
X70326621Y-108692120D02*
X70407433Y-108719057D01*
X70407433Y-108719057D02*
X70488245Y-108799870D01*
X70488245Y-108799870D02*
X70515182Y-108880682D01*
X70515182Y-108880682D02*
X70515182Y-108934557D01*
X70515182Y-108934557D02*
X70488245Y-109015369D01*
X70488245Y-109015369D02*
X70272746Y-109230868D01*
X71404117Y-108638245D02*
X71080868Y-108961494D01*
X71242492Y-108799870D02*
X70676807Y-108234184D01*
X70676807Y-108234184D02*
X70703744Y-108368871D01*
X70703744Y-108368871D02*
X70703744Y-108476621D01*
X70703744Y-108476621D02*
X70676807Y-108557433D01*
X71107805Y-107910935D02*
X71107805Y-107857060D01*
X71107805Y-107857060D02*
X71134743Y-107776248D01*
X71134743Y-107776248D02*
X71269430Y-107641561D01*
X71269430Y-107641561D02*
X71350242Y-107614624D01*
X71350242Y-107614624D02*
X71404117Y-107614624D01*
X71404117Y-107614624D02*
X71484929Y-107641561D01*
X71484929Y-107641561D02*
X71538804Y-107695436D01*
X71538804Y-107695436D02*
X71592679Y-107803186D01*
X71592679Y-107803186D02*
X71592679Y-108449683D01*
X71592679Y-108449683D02*
X71942865Y-108099497D01*
X70303372Y-73391494D02*
X70222560Y-73418431D01*
X70222560Y-73418431D02*
X70141748Y-73499243D01*
X70141748Y-73499243D02*
X70087873Y-73606993D01*
X70087873Y-73606993D02*
X70087873Y-73714742D01*
X70087873Y-73714742D02*
X70114810Y-73795555D01*
X70114810Y-73795555D02*
X70195623Y-73930242D01*
X70195623Y-73930242D02*
X70276435Y-74011054D01*
X70276435Y-74011054D02*
X70411122Y-74091866D01*
X70411122Y-74091866D02*
X70491934Y-74118803D01*
X70491934Y-74118803D02*
X70599684Y-74118803D01*
X70599684Y-74118803D02*
X70707433Y-74064929D01*
X70707433Y-74064929D02*
X70761308Y-74011054D01*
X70761308Y-74011054D02*
X70815183Y-73903304D01*
X70815183Y-73903304D02*
X70815183Y-73849429D01*
X70815183Y-73849429D02*
X70626621Y-73660868D01*
X70626621Y-73660868D02*
X70518871Y-73768617D01*
X71111494Y-73660868D02*
X70545809Y-73095182D01*
X70545809Y-73095182D02*
X70761308Y-72879683D01*
X70761308Y-72879683D02*
X70842120Y-72852746D01*
X70842120Y-72852746D02*
X70895995Y-72852746D01*
X70895995Y-72852746D02*
X70976807Y-72879683D01*
X70976807Y-72879683D02*
X71057619Y-72960495D01*
X71057619Y-72960495D02*
X71084557Y-73041307D01*
X71084557Y-73041307D02*
X71084557Y-73095182D01*
X71084557Y-73095182D02*
X71057619Y-73175994D01*
X71057619Y-73175994D02*
X70842120Y-73391494D01*
X71973491Y-72798871D02*
X71650242Y-73122120D01*
X71811867Y-72960495D02*
X71246181Y-72394810D01*
X71246181Y-72394810D02*
X71273119Y-72529497D01*
X71273119Y-72529497D02*
X71273119Y-72637246D01*
X71273119Y-72637246D02*
X71246181Y-72718059D01*
X69879998Y-104150868D02*
X69799185Y-104177805D01*
X69799185Y-104177805D02*
X69718373Y-104258618D01*
X69718373Y-104258618D02*
X69664498Y-104366367D01*
X69664498Y-104366367D02*
X69664498Y-104474117D01*
X69664498Y-104474117D02*
X69691436Y-104554929D01*
X69691436Y-104554929D02*
X69772248Y-104689616D01*
X69772248Y-104689616D02*
X69853060Y-104770428D01*
X69853060Y-104770428D02*
X69987747Y-104851241D01*
X69987747Y-104851241D02*
X70068560Y-104878178D01*
X70068560Y-104878178D02*
X70176309Y-104878178D01*
X70176309Y-104878178D02*
X70284059Y-104824303D01*
X70284059Y-104824303D02*
X70337934Y-104770428D01*
X70337934Y-104770428D02*
X70391808Y-104662679D01*
X70391808Y-104662679D02*
X70391808Y-104608804D01*
X70391808Y-104608804D02*
X70203247Y-104420242D01*
X70203247Y-104420242D02*
X70095497Y-104527992D01*
X70688120Y-104420242D02*
X70122434Y-103854557D01*
X70122434Y-103854557D02*
X70337934Y-103639057D01*
X70337934Y-103639057D02*
X70418746Y-103612120D01*
X70418746Y-103612120D02*
X70472621Y-103612120D01*
X70472621Y-103612120D02*
X70553433Y-103639057D01*
X70553433Y-103639057D02*
X70634245Y-103719870D01*
X70634245Y-103719870D02*
X70661182Y-103800682D01*
X70661182Y-103800682D02*
X70661182Y-103854557D01*
X70661182Y-103854557D02*
X70634245Y-103935369D01*
X70634245Y-103935369D02*
X70418746Y-104150868D01*
X71550117Y-103558245D02*
X71226868Y-103881494D01*
X71388492Y-103719870D02*
X70822807Y-103154184D01*
X70822807Y-103154184D02*
X70849744Y-103288871D01*
X70849744Y-103288871D02*
X70849744Y-103396621D01*
X70849744Y-103396621D02*
X70822807Y-103477433D01*
X71334618Y-102642373D02*
X71388492Y-102588499D01*
X71388492Y-102588499D02*
X71469305Y-102561561D01*
X71469305Y-102561561D02*
X71523179Y-102561561D01*
X71523179Y-102561561D02*
X71603992Y-102588499D01*
X71603992Y-102588499D02*
X71738679Y-102669311D01*
X71738679Y-102669311D02*
X71873366Y-102803998D01*
X71873366Y-102803998D02*
X71954178Y-102938685D01*
X71954178Y-102938685D02*
X71981115Y-103019497D01*
X71981115Y-103019497D02*
X71981115Y-103073372D01*
X71981115Y-103073372D02*
X71954178Y-103154184D01*
X71954178Y-103154184D02*
X71900303Y-103208059D01*
X71900303Y-103208059D02*
X71819491Y-103234996D01*
X71819491Y-103234996D02*
X71765616Y-103234996D01*
X71765616Y-103234996D02*
X71684804Y-103208059D01*
X71684804Y-103208059D02*
X71550117Y-103127247D01*
X71550117Y-103127247D02*
X71415430Y-102992560D01*
X71415430Y-102992560D02*
X71334618Y-102857873D01*
X71334618Y-102857873D02*
X71307680Y-102777060D01*
X71307680Y-102777060D02*
X71307680Y-102723186D01*
X71307680Y-102723186D02*
X71334618Y-102642373D01*
X96728651Y-96813710D02*
X96270716Y-96732898D01*
X96405403Y-97136959D02*
X95839717Y-96571274D01*
X95839717Y-96571274D02*
X96055216Y-96355775D01*
X96055216Y-96355775D02*
X96136029Y-96328837D01*
X96136029Y-96328837D02*
X96189903Y-96328837D01*
X96189903Y-96328837D02*
X96270716Y-96355775D01*
X96270716Y-96355775D02*
X96351528Y-96436587D01*
X96351528Y-96436587D02*
X96378465Y-96517399D01*
X96378465Y-96517399D02*
X96378465Y-96571274D01*
X96378465Y-96571274D02*
X96351528Y-96652086D01*
X96351528Y-96652086D02*
X96136029Y-96867585D01*
X96405403Y-96005588D02*
X96863338Y-96463524D01*
X96863338Y-96463524D02*
X96944151Y-96490462D01*
X96944151Y-96490462D02*
X96998025Y-96490462D01*
X96998025Y-96490462D02*
X97078838Y-96463524D01*
X97078838Y-96463524D02*
X97186587Y-96355775D01*
X97186587Y-96355775D02*
X97213525Y-96274962D01*
X97213525Y-96274962D02*
X97213525Y-96221088D01*
X97213525Y-96221088D02*
X97186587Y-96140275D01*
X97186587Y-96140275D02*
X96728651Y-95682340D01*
X97563711Y-95978651D02*
X96998025Y-95412966D01*
X96998025Y-95412966D02*
X97886959Y-95655402D01*
X97886959Y-95655402D02*
X97321274Y-95089717D01*
X95987998Y-91460868D02*
X95907185Y-91487805D01*
X95907185Y-91487805D02*
X95826373Y-91568618D01*
X95826373Y-91568618D02*
X95772498Y-91676367D01*
X95772498Y-91676367D02*
X95772498Y-91784117D01*
X95772498Y-91784117D02*
X95799436Y-91864929D01*
X95799436Y-91864929D02*
X95880248Y-91999616D01*
X95880248Y-91999616D02*
X95961060Y-92080428D01*
X95961060Y-92080428D02*
X96095747Y-92161241D01*
X96095747Y-92161241D02*
X96176560Y-92188178D01*
X96176560Y-92188178D02*
X96284309Y-92188178D01*
X96284309Y-92188178D02*
X96392059Y-92134303D01*
X96392059Y-92134303D02*
X96445934Y-92080428D01*
X96445934Y-92080428D02*
X96499808Y-91972679D01*
X96499808Y-91972679D02*
X96499808Y-91918804D01*
X96499808Y-91918804D02*
X96311247Y-91730242D01*
X96311247Y-91730242D02*
X96203497Y-91837992D01*
X96796120Y-91730242D02*
X96230434Y-91164557D01*
X96230434Y-91164557D02*
X96445934Y-90949057D01*
X96445934Y-90949057D02*
X96526746Y-90922120D01*
X96526746Y-90922120D02*
X96580621Y-90922120D01*
X96580621Y-90922120D02*
X96661433Y-90949057D01*
X96661433Y-90949057D02*
X96742245Y-91029870D01*
X96742245Y-91029870D02*
X96769182Y-91110682D01*
X96769182Y-91110682D02*
X96769182Y-91164557D01*
X96769182Y-91164557D02*
X96742245Y-91245369D01*
X96742245Y-91245369D02*
X96526746Y-91460868D01*
X96823057Y-90679683D02*
X96823057Y-90625809D01*
X96823057Y-90625809D02*
X96849995Y-90544996D01*
X96849995Y-90544996D02*
X96984682Y-90410309D01*
X96984682Y-90410309D02*
X97065494Y-90383372D01*
X97065494Y-90383372D02*
X97119369Y-90383372D01*
X97119369Y-90383372D02*
X97200181Y-90410309D01*
X97200181Y-90410309D02*
X97254056Y-90464184D01*
X97254056Y-90464184D02*
X97307930Y-90571934D01*
X97307930Y-90571934D02*
X97307930Y-91218431D01*
X97307930Y-91218431D02*
X97658117Y-90868245D01*
X97280993Y-90113998D02*
X97658117Y-89736874D01*
X97658117Y-89736874D02*
X97981366Y-90544996D01*
X56166667Y-119907200D02*
X56309524Y-119954819D01*
X56309524Y-119954819D02*
X56547619Y-119954819D01*
X56547619Y-119954819D02*
X56642857Y-119907200D01*
X56642857Y-119907200D02*
X56690476Y-119859580D01*
X56690476Y-119859580D02*
X56738095Y-119764342D01*
X56738095Y-119764342D02*
X56738095Y-119669104D01*
X56738095Y-119669104D02*
X56690476Y-119573866D01*
X56690476Y-119573866D02*
X56642857Y-119526247D01*
X56642857Y-119526247D02*
X56547619Y-119478628D01*
X56547619Y-119478628D02*
X56357143Y-119431009D01*
X56357143Y-119431009D02*
X56261905Y-119383390D01*
X56261905Y-119383390D02*
X56214286Y-119335771D01*
X56214286Y-119335771D02*
X56166667Y-119240533D01*
X56166667Y-119240533D02*
X56166667Y-119145295D01*
X56166667Y-119145295D02*
X56214286Y-119050057D01*
X56214286Y-119050057D02*
X56261905Y-119002438D01*
X56261905Y-119002438D02*
X56357143Y-118954819D01*
X56357143Y-118954819D02*
X56595238Y-118954819D01*
X56595238Y-118954819D02*
X56738095Y-119002438D01*
X57071429Y-118954819D02*
X57309524Y-119954819D01*
X57309524Y-119954819D02*
X57500000Y-119240533D01*
X57500000Y-119240533D02*
X57690476Y-119954819D01*
X57690476Y-119954819D02*
X57928572Y-118954819D01*
X58833333Y-119954819D02*
X58261905Y-119954819D01*
X58547619Y-119954819D02*
X58547619Y-118954819D01*
X58547619Y-118954819D02*
X58452381Y-119097676D01*
X58452381Y-119097676D02*
X58357143Y-119192914D01*
X58357143Y-119192914D02*
X58261905Y-119240533D01*
X127653333Y-99454819D02*
X127320000Y-98978628D01*
X127081905Y-99454819D02*
X127081905Y-98454819D01*
X127081905Y-98454819D02*
X127462857Y-98454819D01*
X127462857Y-98454819D02*
X127558095Y-98502438D01*
X127558095Y-98502438D02*
X127605714Y-98550057D01*
X127605714Y-98550057D02*
X127653333Y-98645295D01*
X127653333Y-98645295D02*
X127653333Y-98788152D01*
X127653333Y-98788152D02*
X127605714Y-98883390D01*
X127605714Y-98883390D02*
X127558095Y-98931009D01*
X127558095Y-98931009D02*
X127462857Y-98978628D01*
X127462857Y-98978628D02*
X127081905Y-98978628D01*
X128605714Y-99454819D02*
X128034286Y-99454819D01*
X128320000Y-99454819D02*
X128320000Y-98454819D01*
X128320000Y-98454819D02*
X128224762Y-98597676D01*
X128224762Y-98597676D02*
X128129524Y-98692914D01*
X128129524Y-98692914D02*
X128034286Y-98740533D01*
X121821905Y-73064819D02*
X121821905Y-72064819D01*
X122393333Y-73064819D02*
X121964762Y-72493390D01*
X122393333Y-72064819D02*
X121821905Y-72636247D01*
X123345714Y-73064819D02*
X122774286Y-73064819D01*
X123060000Y-73064819D02*
X123060000Y-72064819D01*
X123060000Y-72064819D02*
X122964762Y-72207676D01*
X122964762Y-72207676D02*
X122869524Y-72302914D01*
X122869524Y-72302914D02*
X122774286Y-72350533D01*
X117991905Y-113994819D02*
X117991905Y-112994819D01*
X117991905Y-112994819D02*
X118230000Y-112994819D01*
X118230000Y-112994819D02*
X118372857Y-113042438D01*
X118372857Y-113042438D02*
X118468095Y-113137676D01*
X118468095Y-113137676D02*
X118515714Y-113232914D01*
X118515714Y-113232914D02*
X118563333Y-113423390D01*
X118563333Y-113423390D02*
X118563333Y-113566247D01*
X118563333Y-113566247D02*
X118515714Y-113756723D01*
X118515714Y-113756723D02*
X118468095Y-113851961D01*
X118468095Y-113851961D02*
X118372857Y-113947200D01*
X118372857Y-113947200D02*
X118230000Y-113994819D01*
X118230000Y-113994819D02*
X117991905Y-113994819D01*
X119515714Y-113994819D02*
X118944286Y-113994819D01*
X119230000Y-113994819D02*
X119230000Y-112994819D01*
X119230000Y-112994819D02*
X119134762Y-113137676D01*
X119134762Y-113137676D02*
X119039524Y-113232914D01*
X119039524Y-113232914D02*
X118944286Y-113280533D01*
D11*
%TO.C,U1*%
X73390000Y-69370000D02*
X73390000Y-69670000D01*
X73390000Y-69370000D02*
X94390000Y-69370000D01*
X73390000Y-71770000D02*
X73390000Y-72170000D01*
X73390000Y-72037000D02*
X76397000Y-72037000D01*
X73390000Y-74370000D02*
X73390000Y-74770000D01*
X73390000Y-76870000D02*
X73390000Y-77270000D01*
X73390000Y-79470000D02*
X73390000Y-79870000D01*
X73390000Y-81970000D02*
X73390000Y-82370000D01*
X73390000Y-84470000D02*
X73390000Y-84870000D01*
X73390000Y-87070000D02*
X73390000Y-87470000D01*
X73390000Y-89570000D02*
X73390000Y-89970000D01*
X73390000Y-92170000D02*
X73390000Y-92570000D01*
X73390000Y-94670000D02*
X73390000Y-95070000D01*
X73390000Y-97170000D02*
X73390000Y-97570000D01*
X73390000Y-99770000D02*
X73390000Y-100170000D01*
X73390000Y-102270000D02*
X73390000Y-102670000D01*
X73390000Y-104870000D02*
X73390000Y-105270000D01*
X73390000Y-107370000D02*
X73390000Y-107770000D01*
X73390000Y-109970000D02*
X73390000Y-110370000D01*
X73390000Y-112470000D02*
X73390000Y-112870000D01*
X73390000Y-114970000D02*
X73390000Y-115370000D01*
X73390000Y-117570000D02*
X73390000Y-117970000D01*
X76397000Y-72037000D02*
X76397000Y-69370000D01*
X80190000Y-120370000D02*
X73390000Y-120370000D01*
X82390000Y-120370000D02*
X82790000Y-120370000D01*
X84990000Y-120370000D02*
X85390000Y-120370000D01*
X94390000Y-69370000D02*
X94390000Y-69670000D01*
X94390000Y-71770000D02*
X94390000Y-72170000D01*
X94390000Y-74370000D02*
X94390000Y-74770000D01*
X94390000Y-76870000D02*
X94390000Y-77270000D01*
X94390000Y-79470000D02*
X94390000Y-79870000D01*
X94390000Y-81970000D02*
X94390000Y-82370000D01*
X94390000Y-84470000D02*
X94390000Y-84870000D01*
X94390000Y-87070000D02*
X94390000Y-87470000D01*
X94390000Y-89570000D02*
X94390000Y-89970000D01*
X94390000Y-92170000D02*
X94390000Y-92570000D01*
X94390000Y-94670000D02*
X94390000Y-95070000D01*
X94390000Y-97170000D02*
X94390000Y-97570000D01*
X94390000Y-99770000D02*
X94390000Y-100170000D01*
X94390000Y-102270000D02*
X94390000Y-102670000D01*
X94390000Y-104870000D02*
X94390000Y-105270000D01*
X94390000Y-107370000D02*
X94390000Y-107770000D01*
X94390000Y-109970000D02*
X94390000Y-110370000D01*
X94390000Y-112470000D02*
X94390000Y-112870000D01*
X94390000Y-114970000D02*
X94390000Y-115370000D01*
X94390000Y-117570000D02*
X94390000Y-117970000D01*
X94390000Y-120370000D02*
X87590000Y-120370000D01*
D10*
%TO.C,SW1*%
X59890000Y-132140000D02*
X55110000Y-132140000D01*
X55110000Y-132139999D02*
G75*
G02*
X59896843Y-132137094I2390000J5639999D01*
G01*
%TO.C,K1*%
X118600000Y-73900000D02*
X119100000Y-73900000D01*
X118600000Y-74500000D02*
X118600000Y-73900000D01*
X118800000Y-74100000D02*
X118800000Y-74500000D01*
X118800000Y-88900000D02*
X118800000Y-88500000D01*
X119100000Y-73900000D02*
X119200000Y-73900000D01*
X126300000Y-74100000D02*
X118800000Y-74100000D01*
X126300000Y-74500000D02*
X126300000Y-74100000D01*
X126300000Y-88600000D02*
X126300000Y-88500000D01*
X126300000Y-88600000D02*
X126300000Y-88900000D01*
X126300000Y-88900000D02*
X118800000Y-88900000D01*
D11*
%TO.C,D1*%
X117170000Y-116710000D02*
X117170000Y-120570000D01*
X117170000Y-116710000D02*
X120290000Y-116710000D01*
X117460000Y-116580000D02*
X117460000Y-116580000D01*
X117460000Y-116580000D02*
X117460000Y-116710000D01*
X117460000Y-116710000D02*
X117460000Y-116580000D01*
X117460000Y-116710000D02*
X117460000Y-116710000D01*
X120000000Y-116580000D02*
X120000000Y-116580000D01*
X120000000Y-116580000D02*
X120000000Y-116710000D01*
X120000000Y-116710000D02*
X120000000Y-116580000D01*
X120000000Y-116710000D02*
X120000000Y-116710000D01*
X120290000Y-116710000D02*
X120290000Y-120570000D01*
X120290000Y-116710000D02*
X120690000Y-116710000D01*
X120290000Y-117830000D02*
X120290000Y-116710000D01*
X120690000Y-116710000D02*
X120690000Y-117830000D01*
X120690000Y-117830000D02*
X120290000Y-117830000D01*
X120290000Y-120570000D02*
G75*
G02*
X117170000Y-120570000I-1560000J0D01*
G01*
%TD*%
M02*
